<?xml version="1.0" encoding="UTF-8"?>
<svg version="1.1" xmlns="http://www.w3.org/2000/svg" width="225" height="225">
<path d="M0 0 C74.25 0 148.5 0 225 0 C225 74.25 225 148.5 225 225 C150.75 225 76.5 225 0 225 C0 150.75 0 76.5 0 0 Z " fill="#FEFEFE" transform="translate(0,0)"/>
<path d="M0 0 C1.14339844 0.01804688 2.28679687 0.03609375 3.46484375 0.0546875 C4.75068359 0.08949219 4.75068359 0.08949219 6.0625 0.125 C2.77786341 2.31475773 -0.14446275 3.12306563 -3.9375 4.125 C-3.11507812 4.22296875 -2.29265625 4.3209375 -1.4453125 4.421875 C5.92468954 5.40908082 12.31615926 6.98787541 19.0625 10.125 C19.0625 10.785 19.0625 11.445 19.0625 12.125 C13.1225 12.455 7.1825 12.785 1.0625 13.125 C1.0625 13.785 1.0625 14.445 1.0625 15.125 C2.031875 15.310625 3.00125 15.49625 4 15.6875 C9.16462811 17.12682259 13.14193154 20.57781901 17.0625 24.125 C17.0625 24.455 17.0625 24.785 17.0625 25.125 C13.1025 25.125 9.1425 25.125 5.0625 25.125 C6.279375 26.011875 7.49625 26.89875 8.75 27.8125 C14.27348031 31.97215801 18.39944915 36.29125236 22.0625 42.125 C20.2990625 41.50625 20.2990625 41.50625 18.5 40.875 C11.7822402 38.62498109 4.91643172 36.90395198 -1.9375 35.125 C-1.19306641 35.70894531 -1.19306641 35.70894531 -0.43359375 36.3046875 C5.94125471 41.5545627 12.20608824 47.8458178 14.0625 56.125 C13.02351563 55.59390625 11.98453125 55.0628125 10.9140625 54.515625 C3.41651986 50.70929097 -4.02679097 47.01545138 -11.9375 44.125 C-11.36 44.785 -10.7825 45.445 -10.1875 46.125 C-6.38300094 51.19766542 -3.48065722 56.95237113 -1.9375 63.125 C-2.39453125 65.296875 -2.39453125 65.296875 -2.9375 67.125 C-3.80632812 66.23296875 -4.67515625 65.3409375 -5.5703125 64.421875 C-6.73410205 63.23931465 -7.89817992 62.057038 -9.0625 60.875 C-9.63226563 60.28847656 -10.20203125 59.70195313 -10.7890625 59.09765625 C-14.27689267 55.57019164 -17.70784518 52.72193092 -21.9375 50.125 C-21.44636719 51.56552734 -21.44636719 51.56552734 -20.9453125 53.03515625 C-19.6534804 57.55656859 -19.71466836 61.89292046 -19.8125 66.5625 C-19.82152344 67.38943359 -19.83054687 68.21636719 -19.83984375 69.06835938 C-19.86318488 71.08736708 -19.89904712 73.10622356 -19.9375 75.125 C-20.18242187 74.62484375 -20.42734375 74.1246875 -20.6796875 73.609375 C-22.42122455 70.1695689 -24.24385256 66.77452118 -26.0625 63.375 C-26.43503906 62.67761719 -26.80757813 61.98023438 -27.19140625 61.26171875 C-28.10629908 59.54922705 -29.02183569 57.83707932 -29.9375 56.125 C-28.88884101 61.32356869 -27.68095763 66.20662149 -25.62109375 71.10546875 C-21.67545491 82.7620132 -23.2962552 95.97980347 -27.9375 107.125 C-28.90107768 108.81298573 -29.89070437 110.48731973 -30.9375 112.125 C-32.47195094 109.05609813 -31.48734289 106.42405734 -30.9375 103.125 C-31.33582031 103.67929688 -31.73414063 104.23359375 -32.14453125 104.8046875 C-32.67433594 105.52914062 -33.20414063 106.25359375 -33.75 107 C-34.27207031 107.71929687 -34.79414062 108.43859375 -35.33203125 109.1796875 C-36.9375 111.125 -36.9375 111.125 -39.9375 113.125 C-38.27083333 108.125 -36.60416667 103.125 -34.9375 98.125 C-35.5975 98.125 -36.2575 98.125 -36.9375 98.125 C-37.15148437 98.69734375 -37.36546875 99.2696875 -37.5859375 99.859375 C-39.39962016 102.89965229 -41.67037219 104.35723641 -44.5625 106.375 C-45.56539062 107.08140625 -46.56828125 107.7878125 -47.6015625 108.515625 C-48.75785156 109.31226563 -48.75785156 109.31226563 -49.9375 110.125 C-50.9275 109.63 -50.9275 109.63 -51.9375 109.125 C-51.53917969 108.60550781 -51.14085937 108.08601563 -50.73046875 107.55078125 C-49.93576172 106.50470703 -49.93576172 106.50470703 -49.125 105.4375 C-48.60292969 104.75300781 -48.08085938 104.06851563 -47.54296875 103.36328125 C-45.86407063 101.02262766 -44.38808822 98.61234496 -42.9375 96.125 C-43.989375 96.63160156 -43.989375 96.63160156 -45.0625 97.1484375 C-50.65423215 99.77715941 -55.88567969 101.86896182 -61.9375 103.125 C-58.78634322 99.85264488 -55.51199082 96.9224276 -51.9375 94.125 C-51.2775 94.125 -50.6175 94.125 -49.9375 94.125 C-49.67066406 93.55007812 -49.40382812 92.97515625 -49.12890625 92.3828125 C-47.89685505 90.04797449 -46.48911725 88.08605816 -44.875 86 C-42.70523805 83.18872737 -42.70523805 83.18872737 -40.9375 80.125 C-41.64922363 79.84285645 -42.36094727 79.56071289 -43.09423828 79.27001953 C-48.04368793 77.27680995 -52.9296967 75.15054875 -57.8125 73 C-59.40771484 72.32710937 -59.40771484 72.32710937 -61.03515625 71.640625 C-72.4206292 66.57727181 -76.99775352 59.83040609 -81.96875 48.78515625 C-83.77162938 45.77448885 -83.77162938 45.77448885 -87.50390625 45.15625 C-90.9161646 44.82999331 -90.9161646 44.82999331 -93.375 46.5625 C-93.890625 47.078125 -94.40625 47.59375 -94.9375 48.125 C-95.1875 45.875 -95.1875 45.875 -94.9375 43.125 C-93.62620078 41.76999081 -92.29058313 40.43828657 -90.9375 39.125 C-89.77914327 36.14996878 -89.77914327 36.14996878 -88.9375 33.125 C-87.55888682 29.67846705 -86.07845755 28.11047576 -82.9375 26.125 C-75.26360829 24.35410191 -69.47675413 26.4503037 -62.9375 30.25 C-62.30287842 30.64743408 -61.66825684 31.04486816 -61.0144043 31.4543457 C-57.65687269 33.64496532 -57.65687269 33.64496532 -53.81640625 33.7109375 C-51.25848021 31.55185647 -49.06468659 29.14433795 -46.875 26.625 C-34.56447601 12.96630794 -19.56940385 -0.40349286 0 0 Z " fill="#9C0B48" transform="translate(150.9375,46.875)"/>
<path d="M0 0 C2.08869726 0.85268914 4.08519374 1.81045149 6.0859375 2.8515625 C6.0859375 3.5115625 6.0859375 4.1715625 6.0859375 4.8515625 C0.1459375 5.1815625 -5.7940625 5.5115625 -11.9140625 5.8515625 C-11.9140625 6.5115625 -11.9140625 7.1715625 -11.9140625 7.8515625 C-10.9446875 8.0371875 -9.9753125 8.2228125 -8.9765625 8.4140625 C-3.81193439 9.85338509 0.16536904 13.30438151 4.0859375 16.8515625 C4.0859375 17.1815625 4.0859375 17.5115625 4.0859375 17.8515625 C0.1259375 17.8515625 -3.8340625 17.8515625 -7.9140625 17.8515625 C-6.6971875 18.7384375 -5.4803125 19.6253125 -4.2265625 20.5390625 C1.29691781 24.69872051 5.42288665 29.01781486 9.0859375 34.8515625 C7.9103125 34.4390625 6.7346875 34.0265625 5.5234375 33.6015625 C1.12705562 32.13610187 -3.31585759 30.87073232 -7.7890625 29.6640625 C-8.44334229 29.48520508 -9.09762207 29.30634766 -9.77172852 29.12207031 C-12.58198034 28.37499987 -14.99128779 27.8515625 -17.9140625 27.8515625 C-17.9140625 27.5215625 -17.9140625 27.1915625 -17.9140625 26.8515625 C-23.91461004 25.18474374 -29.7086483 24.33477098 -35.9140625 23.8515625 C-36.1015625 21.4765625 -36.1015625 21.4765625 -35.9140625 18.8515625 C-34.9240625 18.1915625 -33.9340625 17.5315625 -32.9140625 16.8515625 C-35.8840625 16.5215625 -38.8540625 16.1915625 -41.9140625 15.8515625 C-39.2890625 10.9765625 -39.2890625 10.9765625 -35.9140625 9.8515625 C-35.9140625 9.1915625 -35.9140625 8.5315625 -35.9140625 7.8515625 C-24.76794492 -2.48146443 -14.76267352 -4.98807057 0 0 Z " fill="#CC3C77" transform="translate(163.9140625,54.1484375)"/>
<path d="M0 0 C1.14339844 0.01804688 2.28679687 0.03609375 3.46484375 0.0546875 C4.75068359 0.08949219 4.75068359 0.08949219 6.0625 0.125 C3.09320573 2.10452952 1.02257829 2.75350438 -2.375 3.6875 C-8.87917001 5.75520813 -13.32108112 9.05127335 -18.5390625 13.296875 C-20.9375 15.125 -20.9375 15.125 -22.9375 15.125 C-22.9375 15.785 -22.9375 16.445 -22.9375 17.125 C-24.60416667 18.79166667 -26.27083333 20.45833333 -27.9375 22.125 C-29.28912508 24.11268394 -30.62443567 26.1116347 -31.9375 28.125 C-32.91770375 29.1444119 -33.91553008 30.14746356 -34.9375 31.125 C-38.67697681 34.86447681 -38.62579278 39.09469043 -38.9375 44.125 C-38.2775 44.125 -37.6175 44.125 -36.9375 44.125 C-35.4296875 45.875 -35.4296875 45.875 -33.8125 48.125 C-33.27367187 48.8675 -32.73484375 49.61 -32.1796875 50.375 C-31.76976562 50.9525 -31.35984375 51.53 -30.9375 52.125 C-31.4325 53.115 -31.4325 53.115 -31.9375 54.125 C-32.5975 53.465 -33.2575 52.805 -33.9375 52.125 C-34.5975 52.785 -35.2575 53.445 -35.9375 54.125 C-36.9275 54.125 -37.9175 54.125 -38.9375 54.125 C-39.2675 59.075 -39.5975 64.025 -39.9375 69.125 C-40.2675 69.125 -40.5975 69.125 -40.9375 69.125 C-40.99808594 68.01640625 -41.05867188 66.9078125 -41.12109375 65.765625 C-41.20552951 64.3020718 -41.29017599 62.83853075 -41.375 61.375 C-41.41431641 60.64539063 -41.45363281 59.91578125 -41.49414062 59.1640625 C-41.69897098 55.6977027 -42.0227002 52.47166974 -42.9375 49.125 C-44.2575 49.125 -45.5775 49.125 -46.9375 49.125 C-47.4325 46.65 -47.4325 46.65 -47.9375 44.125 C-48.51757812 44.46273437 -49.09765625 44.80046875 -49.6953125 45.1484375 C-54.02751059 47.62193674 -58.10420766 49.7617637 -62.9375 51.125 C-63.2675 50.465 -63.5975 49.805 -63.9375 49.125 C-64.9275 49.125 -65.9175 49.125 -66.9375 49.125 C-65.41781735 45.25671688 -63.13947271 43.68657817 -59.9375 41.125 C-58.26439926 39.32216685 -56.67631198 37.45605647 -55.07421875 35.58984375 C-23.7968281 -0.49065625 -23.7968281 -0.49065625 0 0 Z " fill="#252D88" transform="translate(150.9375,46.875)"/>
<path d="M0 0 C3.63 0 7.26 0 11 0 C10.01 0.99 9.02 1.98 8 3 C7.27802838 5.60611077 7.27802838 5.60611077 7 8 C7.92619141 7.94779297 7.92619141 7.94779297 8.87109375 7.89453125 C16.97761476 7.63541871 25.16787578 9.13655336 31.67578125 14.33984375 C36.67924437 19.22389248 40.84393546 24.73977987 44 31 C43.67 31.66 43.34 32.32 43 33 C41.92685547 32.32904297 41.92685547 32.32904297 40.83203125 31.64453125 C33.40651249 27.13926825 26.20829227 23.8729023 18 21 C18.92425781 22.11568359 18.92425781 22.11568359 19.8671875 23.25390625 C23.69221705 28.17880694 26.48476049 33.93904194 28 40 C27.54296875 42.171875 27.54296875 42.171875 27 44 C26.11957031 43.10796875 25.23914063 42.2159375 24.33203125 41.296875 C23.15898957 40.11444899 21.98580491 38.93216481 20.8125 37.75 C20.23435547 37.16347656 19.65621094 36.57695313 19.06054688 35.97265625 C13.26405776 29.90159892 13.26405776 29.90159892 6 26 C3.8480563 22.77208445 3.79913557 21.71599191 4 18 C4.99 18 5.98 18 7 18 C7 17.34 7 16.68 7 16 C6.360625 15.87625 5.72125 15.7525 5.0625 15.625 C1.02988724 14.8020178 -2.98423907 13.90114025 -7 13 C-6.51163302 8.60469719 -5.17023548 6.9781 -2 4 C-1.34 2.68 -0.68 1.36 0 0 Z " fill="#B81D59" transform="translate(121,70)"/>
<path d="M0 0 C5.96120239 2.40808968 11.49158648 5.71061562 17 9 C16.06950557 10.11197585 15.13514611 11.22071805 14.19921875 12.328125 C13.67932373 12.9459082 13.15942871 13.56369141 12.6237793 14.20019531 C10.29631171 16.77997144 7.71205926 18.83035259 5 21 C4.4225 21.5775 3.845 22.155 3.25 22.75 C1.57095853 24.42904147 0.43139006 24.97834387 -1.9453125 25.09765625 C-3.96354167 25.06510417 -5.98177083 25.03255208 -8 25 C-8 24.34 -8 23.68 -8 23 C-8.99 23 -9.98 23 -11 23 C-11.61875 22.34 -12.2375 21.68 -12.875 21 C-14.8289492 18.79393032 -14.8289492 18.79393032 -17.5 18.5625 C-20.39843626 19.06972634 -21.82182537 20.06384477 -24 22 C-24.25 19.75 -24.25 19.75 -24 17 C-22.68870078 15.64499081 -21.35308313 14.31328657 -20 13 C-18.84164327 10.02496878 -18.84164327 10.02496878 -18 7 C-14.76251301 -1.09371747 -7.76445901 -1.49157163 0 0 Z " fill="#ED8958" transform="translate(80,73)"/>
<path d="M0 0 C0.66 0.33 1.32 0.66 2 1 C2 2.65 2 4.3 2 6 C3.32 6 4.64 6 6 6 C7.83069903 9.12929178 8.23931181 11.37643146 8.1953125 14.984375 C8.18886719 15.91894531 8.18242188 16.85351562 8.17578125 17.81640625 C8.15902344 18.78449219 8.14226562 19.75257812 8.125 20.75 C8.11597656 21.73355469 8.10695312 22.71710938 8.09765625 23.73046875 C8.07412785 26.15389407 8.04125368 28.57682222 8 31 C7.34 31 6.68 31 6 31 C4.68 27.04 3.36 23.08 2 19 C1.566875 21.4440625 1.566875 21.4440625 1.125 23.9375 C0.6328125 26.71484375 0.6328125 26.71484375 0 29 C-0.66 29.33 -1.32 29.66 -2 30 C-2.99 26.37 -3.98 22.74 -5 19 C-6.65 19.33 -8.3 19.66 -10 20 C-10 20.66 -10 21.32 -10 22 C-13.85236595 23.81287809 -16.7722082 24.84555836 -21 24 C-26.1773976 19.6554881 -29.35810804 14.12918935 -32 8 C-32 7.34 -32 6.68 -32 6 C-31.34 6 -30.68 6 -30 6 C-30 6.66 -30 7.32 -30 8 C-29.35933594 7.86722656 -28.71867187 7.73445313 -28.05859375 7.59765625 C-17.8767834 5.51880674 -17.8767834 5.51880674 -13 5 C-12.67 5.33 -12.34 5.66 -12 6 C-5.56843049 3.8006072 -5.56843049 3.8006072 0 0 Z " fill="#1B2E81" transform="translate(102,90)"/>
<path d="M0 0 C0.33 0.66 0.66 1.32 1 2 C2.95878868 2.39308347 2.95878868 2.39308347 5.25 2.5 C8.83866883 2.81479551 11.72170599 3.41372871 15 5 C15 5.66 15 6.32 15 7 C14.01 7 13.02 7 12 7 C12.98910754 10.1955782 14.06409578 13.12819157 15.5625 16.125 C17.4834077 19.96681539 18.1281947 23.05274194 18.09765625 27.328125 C18.09443359 28.12734375 18.09121094 28.9265625 18.08789062 29.75 C18.07951172 30.575 18.07113281 31.4 18.0625 32.25 C18.05798828 33.09046875 18.05347656 33.9309375 18.04882812 34.796875 C18.03707961 36.86461401 18.01914522 38.93231624 18 41 C17.75507813 40.49984375 17.51015625 39.9996875 17.2578125 39.484375 C15.51627545 36.0445689 13.69364744 32.64952118 11.875 29.25 C11.50246094 28.55261719 11.12992188 27.85523437 10.74609375 27.13671875 C9.83120092 25.42422705 8.91566431 23.71207932 8 22 C8.13051758 22.9137439 8.13051758 22.9137439 8.26367188 23.84594727 C9.00029282 29.1557566 8.86490934 33.71444291 8 39 C5.9128099 35.86921485 3.84125947 32.73133024 1.8125 29.5625 C1.43158203 28.98951172 1.05066406 28.41652344 0.65820312 27.82617188 C-2.05876397 23.5411548 -2.05876397 23.5411548 -1.73828125 20.58984375 C-1.49464844 20.06519531 -1.25101562 19.54054688 -1 19 C-0.01 19 0.98 19 2 19 C2.66 18.34 3.32 17.68 4 17 C4.33 17 4.66 17 5 17 C4.34 16.21625 3.68 15.4325 3 14.625 C1 12 1 12 1 10 C0.34 10 -0.32 10 -1 10 C-2.15837626 5.94568308 -1.83691257 3.78187881 0 0 Z " fill="#4E066D" transform="translate(113,81)"/>
<path d="M0 0 C1.14339844 0.01804688 2.28679687 0.03609375 3.46484375 0.0546875 C4.75068359 0.08949219 4.75068359 0.08949219 6.0625 0.125 C3.09320573 2.10452952 1.02257829 2.75350438 -2.375 3.6875 C-8.87917001 5.75520813 -13.32108112 9.05127335 -18.5390625 13.296875 C-20.9375 15.125 -20.9375 15.125 -22.9375 15.125 C-22.9375 15.785 -22.9375 16.445 -22.9375 17.125 C-24.175 17.3725 -25.4125 17.62 -26.6875 17.875 C-30.53122394 18.84099741 -32.36896205 20.0250404 -34.9375 23.125 C-35.783125 23.929375 -36.62875 24.73375 -37.5 25.5625 C-40.01099565 28.0156405 -40.01099565 28.0156405 -41.625 30.9375 C-42.058125 31.659375 -42.49125 32.38125 -42.9375 33.125 C-43.5975 33.125 -44.2575 33.125 -44.9375 33.125 C-45.9275 35.6 -45.9275 35.6 -46.9375 38.125 C-47.9275 37.795 -48.9175 37.465 -49.9375 37.125 C-50.2675 37.785 -50.5975 38.445 -50.9375 39.125 C-50.9375 38.465 -50.9375 37.805 -50.9375 37.125 C-51.5975 36.795 -52.2575 36.465 -52.9375 36.125 C-52.9375 31.84688994 -50.42891016 30.00234441 -47.625 27.0625 C-47.07811523 26.48540283 -46.53123047 25.90830566 -45.96777344 25.3137207 C-44.3022368 23.57289334 -42.62153441 21.84791617 -40.9375 20.125 C-40.05191406 19.20203125 -39.16632813 18.2790625 -38.25390625 17.328125 C-28.27001249 7.54178165 -14.26339448 -0.29409061 0 0 Z " fill="#B823D2" transform="translate(150.9375,46.875)"/>
<path d="M0 0 C4.88407417 2.1189042 7.46646012 5.38726326 10 10 C11.50959103 14.49988138 11.84120568 18.15219905 9.84765625 22.53125 C7.33886057 26.46361168 4.84272401 29.32934867 1 32 C2.66666667 27 4.33333333 22 6 17 C5.34 17 4.68 17 4 17 C3.78601563 17.57234375 3.57203125 18.1446875 3.3515625 18.734375 C1.53787984 21.77465229 -0.73287219 23.23223641 -3.625 25.25 C-4.62789062 25.95640625 -5.63078125 26.6628125 -6.6640625 27.390625 C-7.43492188 27.92171875 -8.20578125 28.4528125 -9 29 C-9.66 28.67 -10.32 28.34 -11 28 C-10.60167969 27.48050781 -10.20335938 26.96101563 -9.79296875 26.42578125 C-9.26316406 25.72839844 -8.73335937 25.03101563 -8.1875 24.3125 C-7.66542969 23.62800781 -7.14335938 22.94351563 -6.60546875 22.23828125 C-4.92657063 19.89762766 -3.45058822 17.48734496 -2 15 C-2.70125 15.33773437 -3.4025 15.67546875 -4.125 16.0234375 C-9.71673215 18.65215941 -14.94817969 20.74396182 -21 22 C-17.84884322 18.72764488 -14.57449082 15.7974276 -11 13 C-10.34 13 -9.68 13 -9 13 C-8.74476562 12.43796875 -8.48953125 11.8759375 -8.2265625 11.296875 C-6.84307219 8.70613518 -5.20061417 6.54892155 -3.375 4.25 C-2.74335937 3.45078125 -2.11171875 2.6515625 -1.4609375 1.828125 C-0.97882813 1.22484375 -0.49671875 0.6215625 0 0 Z " fill="#0959A2" transform="translate(110,128)"/>
<path d="M0 0 C9.55751044 -0.44338966 17.46704803 0.53959329 26 5 C26 5.66 26 6.32 26 7 C20.06 7.33 14.12 7.66 8 8 C8 8.66 8 9.32 8 10 C8.969375 10.185625 9.93875 10.37125 10.9375 10.5625 C16.10212811 12.00182259 20.07943154 15.45281901 24 19 C24 19.33 24 19.66 24 20 C21.77110504 20.05428973 19.54182529 20.09292338 17.3125 20.125 C16.07113281 20.14820312 14.82976562 20.17140625 13.55078125 20.1953125 C10.15992449 20.00879673 7.96523104 19.61790073 5 18 C3.8192311 14.71071522 3.8842823 13.34715311 5 10 C3.35 9.67 1.7 9.34 0 9 C0.185625 7.88625 0.37125 6.7725 0.5625 5.625 C1.31680657 2.17431139 1.31680657 2.17431139 0 0 Z " fill="#EE875E" transform="translate(144,52)"/>
<path d="M0 0 C3.44868587 4.08733141 6.23793154 8.43805907 9 13 C9.33 11.35 9.66 9.7 10 8 C10.66 8 11.32 8 12 8 C17.51012981 21.89510996 17.8078609 36.05336413 12 50 C11.03642232 51.68798573 10.04679563 53.36231973 9 55 C7.55966525 52.11933049 8.59421444 50.62733475 9.5 47.5625 C11.70614729 38.67801545 10.7923234 30.04012363 10 21 C9.34 21 8.68 21 8 21 C7.75765625 20.48050781 7.5153125 19.96101563 7.265625 19.42578125 C5.65035226 16.06477144 4.26399712 13.29333013 1.75 10.5 C-0.78012181 6.88554028 -0.29454964 4.34460713 0 0 Z " fill="#D32171" transform="translate(111,104)"/>
<path d="M0 0 C6.65232898 5.39160534 10.94682196 13.78728786 13 22 C12.54296875 24.171875 12.54296875 24.171875 12 26 C11.11957031 25.10796875 10.23914063 24.2159375 9.33203125 23.296875 C8.15898957 22.11444899 6.98580491 20.93216481 5.8125 19.75 C5.23435547 19.16347656 4.65621094 18.57695313 4.06054688 17.97265625 C-1.73594224 11.90159892 -1.73594224 11.90159892 -9 8 C-11.1519437 4.77208445 -11.20086443 3.71599191 -11 0 C-7.07774527 -1.30741824 -3.86873264 -1.37965833 0 0 Z " fill="#8A3288" transform="translate(136,88)"/>
<path d="M0 0 C0.33 0.66 0.66 1.32 1 2 C2.32 2 3.64 2 5 2 C5.66 3.65 6.32 5.3 7 7 C8.70840281 5.36587557 9.93453047 4.13093906 11 2 C11.99 2 12.98 2 14 2 C14 5.96 14 9.92 14 14 C13.34 14 12.68 14 12 14 C11.67 11.69 11.34 9.38 11 7 C10.01 8.485 10.01 8.485 9 10 C8.01 9.67 7.02 9.34 6 9 C5.67 8.34 5.34 7.68 5 7 C4.67 9.64 4.34 12.28 4 15 C-0.53991867 16.40570876 -4.33849636 15.61696372 -9 15 C-9 10.71 -9 6.42 -9 2 C-6.94921875 1.77213542 -4.8984375 1.54427083 -2.84765625 1.31640625 C-0.98859771 1.18113386 -0.98859771 1.18113386 0 0 Z " fill="#E2E1E1" transform="translate(95,171)"/>
<path d="M0 0 C1.32 0.66 2.64 1.32 4 2 C3.67 3.98 3.34 5.96 3 8 C5.475 8.495 5.475 8.495 8 9 C7.67 11.97 7.34 14.94 7 18 C2.71 18 -1.58 18 -6 18 C-6 16.35 -6 14.7 -6 13 C-10.455 13.495 -10.455 13.495 -15 14 C-13.875 9.5 -13.875 9.5 -10.83984375 7.421875 C-10.21142578 6.98359375 -9.58300781 6.5453125 -8.93554688 6.09375 C-8.27619141 5.6503125 -7.61683594 5.206875 -6.9375 4.75 C-6.27427734 4.29109375 -5.61105469 3.8321875 -4.92773438 3.359375 C-3.29197693 2.22964324 -1.64685766 1.11348827 0 0 Z " fill="#DF5A64" transform="translate(142,52)"/>
<path d="M0 0 C0.66 0.33 1.32 0.66 2 1 C1.50628906 1.77085937 1.01257813 2.54171875 0.50390625 3.3359375 C-0.13675781 4.33882812 -0.77742188 5.34171875 -1.4375 6.375 C-2.07558594 7.37273437 -2.71367188 8.37046875 -3.37109375 9.3984375 C-4.96899211 11.85830521 -4.96899211 11.85830521 -6 14 C-4.20386168 12.73549459 -2.41322966 11.46316512 -0.625 10.1875 C0.37273437 9.47980469 1.37046875 8.77210938 2.3984375 8.04296875 C5.16680648 6.08757661 5.16680648 6.08757661 7 3 C7.66 3 8.32 3 9 3 C8.52762719 4.92323218 8.05312638 6.84597358 7.56640625 8.765625 C7.05602996 10.77897146 6.55846976 12.79555629 6.0625 14.8125 C5.06773955 17.79678134 4.44233749 19.11273921 2 21 C1.67 20.01 1.34 19.02 1 18 C-2.96 18 -6.92 18 -11 18 C-11 17.34 -11 16.68 -11 16 C-10.34 16 -9.68 16 -9 16 C-9 14.68 -9 13.36 -9 12 C-9.66 12 -10.32 12 -11 12 C-10.67 11.01 -10.34 10.02 -10 9 C-11.65 9 -13.3 9 -15 9 C-15.33 8.34 -15.66 7.68 -16 7 C-15.09636719 6.66226563 -14.19273438 6.32453125 -13.26171875 5.9765625 C-12.08222656 5.53054687 -10.90273437 5.08453125 -9.6875 4.625 C-7.92986328 3.96371094 -7.92986328 3.96371094 -6.13671875 3.2890625 C-2.91446407 2.08510352 -2.91446407 2.08510352 0 0 Z " fill="#E6F2F5" transform="translate(107,142)"/>
<path d="M0 0 C3.27346607 3.09652196 5.97509956 5.95019912 8 10 C8 10.99 8 11.98 8 13 C8.66 13 9.32 13 10 13 C11.31552167 19.3896767 12.47531452 25.46442538 12 32 C11.34 32.66 10.68 33.32 10 34 C9.77957031 33.03900391 9.77957031 33.03900391 9.5546875 32.05859375 C7.90012481 25.67806751 5.68857904 21.60311015 1 17 C0.443125 16.44183594 -0.11375 15.88367188 -0.6875 15.30859375 C-1.120625 14.87675781 -1.55375 14.44492188 -2 14 C-1.67 13.34 -1.34 12.68 -1 12 C-1 9.99216048 -1.00204815 7.98418966 -1.03125 5.9765625 C-0.99772102 3.85585435 -0.67089655 2.01268964 0 0 Z " fill="#9F043E" transform="translate(111,112)"/>
<path d="M0 0 C3.625 1 3.625 1 6 2 C6 2.66 6 3.32 6 4 C8.475 4.495 8.475 4.495 11 5 C11 8 11 8 9.625 9.625 C5.93479408 12.74748193 2.65971953 12.07515677 -2 12 C-2 11.34 -2 10.68 -2 10 C-2.99 10 -3.98 10 -5 10 C-5.598125 9.360625 -6.19625 8.72125 -6.8125 8.0625 C-9.50203596 5.52665181 -11.38286362 5.32883058 -15 5 C-10.72715637 -0.69712484 -6.88046948 -0.86691721 0 0 Z " fill="#C24250" transform="translate(74,86)"/>
<path d="M0 0 C0 2.33333333 0 4.66666667 0 7 C0.99 7.33 1.98 7.66 3 8 C1.35 8.66 -0.3 9.32 -2 10 C-2 10.66 -2 11.32 -2 12 C-5.83324261 13.80387888 -8.78277563 14.77459223 -13 14 C-15.37348686 11.9292814 -17.30598767 9.65515408 -19 7 C-19 6.34 -19 5.68 -19 5 C-18.27554688 4.89042969 -17.55109375 4.78085938 -16.8046875 4.66796875 C-11.33234491 3.77050457 -5.08909523 0 0 0 Z " fill="#152C75" transform="translate(94,100)"/>
<path d="M0 0 C6.6554291 5.16135318 13.10935276 11.53338256 15 20 C8.33333333 16.66666667 1.66666667 13.33333333 -5 10 C-5 9.01 -5 8.02 -5 7 C-5.66 7 -6.32 7 -7 7 C-6.67 6.34 -6.34 5.68 -6 5 C-5.64830932 3.67139075 -5.31229724 2.33841672 -5 1 C-2.525 1.99 -2.525 1.99 0 3 C0 2.01 0 1.02 0 0 Z " fill="#D1346F" transform="translate(150,83)"/>
<path d="M0 0 C-1.93196698 5.47390644 -4.80931206 9.99151588 -9 14 C-11.67715061 17.10549471 -12.8415144 20.07897183 -14 24 C-15.65 24 -17.3 24 -19 24 C-19 23.01 -19 22.02 -19 21 C-19.66 21 -20.32 21 -21 21 C-20.34 19.35 -19.68 17.7 -19 16 C-18.34 16 -17.68 16 -17 16 C-16.7525 15.278125 -16.505 14.55625 -16.25 13.8125 C-14.40545463 9.66227291 -12.59100583 6.66600244 -8.3125 4.875 C-7.549375 4.58625 -6.78625 4.2975 -6 4 C-5.67 3.01 -5.34 2.02 -5 1 C-2 0 -2 0 0 0 Z " fill="#372B8F" transform="translate(125,64)"/>
<path d="M0 0 C0.33 0.66 0.66 1.32 1 2 C-4.14610914 7.97612674 -10.22228347 10.86103057 -18.0625 11.75 C-20.0115625 11.87375 -20.0115625 11.87375 -22 12 C-22.67154933 10.71086513 -23.33708859 9.41859796 -24 8.125 C-24.37125 7.40570313 -24.7425 6.68640625 -25.125 5.9453125 C-26 4 -26 4 -26 2 C-25.34 2 -24.68 2 -24 2 C-24 2.66 -24 3.32 -24 4 C-23.35933594 3.86722656 -22.71867187 3.73445313 -22.05859375 3.59765625 C-11.8767834 1.51880674 -11.8767834 1.51880674 -7 1 C-6.67 1.33 -6.34 1.66 -6 2 C-4.02 1.34 -2.04 0.68 0 0 Z " fill="#2D3D95" transform="translate(96,94)"/>
<path d="M0 0 C9.48386046 4.41490056 14.54487886 9.12091984 20 18 C18.80375 17.5875 17.6075 17.175 16.375 16.75 C10.92988448 14.91466554 5.39521112 13.44167475 -0.15625 11.96484375 C-3 11 -3 11 -4 9 C-3.01 8.34 -2.02 7.68 -1 7 C-0.83329727 3.95826106 -0.83329727 3.95826106 -1 1 C-0.67 0.67 -0.34 0.34 0 0 Z " fill="#E45F9C" transform="translate(153,71)"/>
<path d="M0 0 C0.90238747 2.70716242 1.11851302 4.23776768 1.09765625 7.01171875 C1.09443359 7.76904297 1.09121094 8.52636719 1.08789062 9.30664062 C1.07951172 10.09232422 1.07113281 10.87800781 1.0625 11.6875 C1.05798828 12.48478516 1.05347656 13.28207031 1.04882812 14.10351562 C1.0370585 16.06904257 1.01912348 18.03453085 1 20 C0.34 20 -0.32 20 -1 20 C-2.32 16.04 -3.64 12.08 -5 8 C-5.433125 10.4440625 -5.433125 10.4440625 -5.875 12.9375 C-6.3671875 15.71484375 -6.3671875 15.71484375 -7 18 C-7.66 18.33 -8.32 18.66 -9 19 C-10.79074734 13.10106757 -11.08360869 9.06820868 -10 3 C-8.68 3 -7.36 3 -6 3 C-6 2.34 -6 1.68 -6 1 C-3 0 -3 0 0 0 Z " fill="#085DA2" transform="translate(109,101)"/>
<path d="M0 0 C0.33 0.66 0.66 1.32 1 2 C1.99 2 2.98 2 4 2 C4 2.66 4 3.32 4 4 C2.9275 4.721875 1.855 5.44375 0.75 6.1875 C-3.24621716 8.89487633 -4.89266203 11.70103055 -7 16 C-7.66 16 -8.32 16 -9 16 C-9.99 18.475 -9.99 18.475 -11 21 C-11.99 20.67 -12.98 20.34 -14 20 C-14.33 20.66 -14.66 21.32 -15 22 C-15 21.34 -15 20.68 -15 20 C-15.66 19.67 -16.32 19.34 -17 19 C-17 14.55928248 -14.10714428 12.53750766 -11.1875 9.5 C-10.64029297 8.91863281 -10.09308594 8.33726563 -9.52929688 7.73828125 C-8.02917113 6.14905713 -6.52182042 4.56845145 -5 3 C-4.48606689 2.44248047 -3.97213379 1.88496094 -3.44262695 1.31054688 C-2 0 -2 0 0 0 Z " fill="#6831B4" transform="translate(115,64)"/>
<path d="M0 0 C5.28612901 2.11368439 10.15549018 5.0350541 15 8 C12 9 12 9 8 9 C8 8.01 8 7.02 8 6 C6.081875 6.0309375 6.081875 6.0309375 4.125 6.0625 C0.25 6.125 0.25 6.125 -2 5 C-2.33 5.99 -2.66 6.98 -3 8 C-4.6254308 7.85904936 -6.25034051 7.71207913 -7.875 7.5625 C-8.77992187 7.48128906 -9.68484375 7.40007812 -10.6171875 7.31640625 C-13 7 -13 7 -15 6 C-15.33 6.66 -15.66 7.32 -16 8 C-16.33 7.01 -16.66 6.02 -17 5 C-12.61295294 -1.26721009 -7.23442218 -1.46468726 0 0 Z " fill="#F39B49" transform="translate(80,73)"/>
<path d="M0 0 C0.66 0.33 1.32 0.66 2 1 C3.66392045 1.67349161 5.33032028 2.3409159 7 3 C2.80963014 10.50700302 -0.63939093 13.472374 -9 16 C-9.33 15.34 -9.66 14.68 -10 14 C-10.99 14 -11.98 14 -13 14 C-11.49055027 10.15776433 -9.23156958 8.48004177 -6 6 C-4.3142876 4.35259924 -2.6436814 2.68933922 -1 1 C-0.67 0.67 -0.34 0.34 0 0 Z " fill="#5233AD" transform="translate(97,82)"/>
<path d="M0 0 C9.55751044 -0.44338966 17.46704803 0.53959329 26 5 C26 5.66 26 6.32 26 7 C23.06296475 7.24849534 20.12713668 7.47448285 17.1875 7.6875 C16.35412109 7.76033203 15.52074219 7.83316406 14.66210938 7.90820312 C13.45844727 7.99038086 13.45844727 7.99038086 12.23046875 8.07421875 C11.49207764 8.13182373 10.75368652 8.18942871 9.99291992 8.2487793 C7.37472448 7.92194588 6.67597177 6.98615336 5 5 C4.113125 4.113125 3.22625 3.22625 2.3125 2.3125 C1.549375 1.549375 0.78625 0.78625 0 0 Z " fill="#EC9A5D" transform="translate(144,52)"/>
<path d="M0 0 C1.98 0 3.96 0 6 0 C3.75465261 5.81148736 1.32537488 7.28890006 -4 10 C-4.66 10.66 -5.32 11.32 -6 12 C-6.86625 11.21625 -7.7325 10.4325 -8.625 9.625 C-11.55056447 7.16613272 -14.27536762 5.97549896 -18 5 C-18 4.34 -18 3.68 -18 3 C-11.95170514 2.10395632 -6.1105424 1.88730557 0 2 C0 1.34 0 0.68 0 0 Z " fill="#FAF5E5" transform="translate(170,57)"/>
<path d="M0 0 C1.89488952 1.89488952 1.18019112 4.57139146 1.23046875 7.08984375 C1 9 1 9 -1 11 C-4.5 11.25 -4.5 11.25 -8 11 C-10 9 -10 9 -10.3125 5.5625 C-10 2 -10 2 -8.9375 0 C-5.83813522 -1.59967215 -3.30041286 -0.73342508 0 0 Z " fill="#1E1E1E" transform="translate(71,174)"/>
<path d="M0 0 C2.4375 1.375 2.4375 1.375 5 4 C6.59596957 9.98224355 6.00466285 15.97202292 5 22 C2.9128099 18.86921485 0.84125947 15.73133024 -1.1875 12.5625 C-1.56841797 11.98951172 -1.94933594 11.41652344 -2.34179688 10.82617188 C-5.05876397 6.5411548 -5.05876397 6.5411548 -4.73828125 3.58984375 C-4.49464844 3.06519531 -4.25101562 2.54054688 -4 2 C-3.01 2 -2.02 2 -1 2 C-0.67 1.34 -0.34 0.68 0 0 Z " fill="#5C2BA6" transform="translate(116,98)"/>
<path d="M0 0 C2.4178712 -0.10826289 4.83087556 -0.18739789 7.25 -0.25 C8.27287109 -0.30027344 8.27287109 -0.30027344 9.31640625 -0.3515625 C12.83282253 -0.41984243 14.64850319 -0.26749128 17.484375 1.890625 C19 4 19 4 19 6 C18.01 6.495 18.01 6.495 17 7 C17.66 7.33 18.32 7.66 19 8 C19 8.66 19 9.32 19 10 C18.26136719 9.79503906 17.52273437 9.59007812 16.76171875 9.37890625 C9.82672596 7.53721185 3.16250663 6.40888325 -4 6 C-1.3144406 3.3144406 1.37621328 2.93950026 5 2 C3.35 1.67 1.7 1.34 0 1 C0 0.67 0 0.34 0 0 Z " fill="#F3E5EE" transform="translate(149,46)"/>
<path d="M0 0 C0.71027344 0.09796875 1.42054688 0.1959375 2.15234375 0.296875 C2.86519531 0.38453125 3.57804688 0.4721875 4.3125 0.5625 C4.89902344 0.72234375 5.48554688 0.8821875 6.08984375 1.046875 C6.41984375 1.706875 6.74984375 2.366875 7.08984375 3.046875 C8.07984375 3.376875 9.06984375 3.706875 10.08984375 4.046875 C10.08984375 5.036875 10.08984375 6.026875 10.08984375 7.046875 C8.76984375 6.716875 7.44984375 6.386875 6.08984375 6.046875 C5.37594515 8.51531745 5.37594515 8.51531745 5.08984375 11.046875 C5.08984375 11.706875 5.08984375 12.366875 5.08984375 13.046875 C1.746109 12.48958587 -0.94328624 11.69513611 -3.91015625 10.046875 C-4.10546875 3.9921875 -4.10546875 3.9921875 -3.91015625 2.046875 C-1.91015625 0.046875 -1.91015625 0.046875 0 0 Z " fill="#C32762" transform="translate(139.91015625,78.953125)"/>
<path d="M0 0 C1.32 0.66 2.64 1.32 4 2 C3.67 3.98 3.34 5.96 3 8 C4.65 8.33 6.3 8.66 8 9 C7.67 11.64 7.34 14.28 7 17 C5.35 17 3.7 17 2 17 C2.33 15.02 2.66 13.04 3 11 C-0.3 11 -3.6 11 -7 11 C-7 10.34 -7 9.68 -7 9 C-6.01 8.67 -5.02 8.34 -4 8 C-4.99 7.67 -5.98 7.34 -7 7 C-5.66667905 3.00003714 -3.5042173 2.16217663 0 0 Z " fill="#E77263" transform="translate(142,52)"/>
<path d="M0 0 C0.66 0.33 1.32 0.66 2 1 C2 4.3 2 7.6 2 11 C-1.31379672 12.65689836 -3.42391873 13.54152804 -7 14 C-7.99 13.67 -8.98 13.34 -10 13 C-9.67 12.34 -9.34 11.68 -9 11 C-7.02 11 -5.04 11 -3 11 C-3 10.34 -3 9.68 -3 9 C-5.31 8.01 -7.62 7.02 -10 6 C-10 4.68 -10 3.36 -10 2 C-8.906875 1.855625 -7.81375 1.71125 -6.6875 1.5625 C-3.06877013 1.11711896 -3.06877013 1.11711896 0 0 Z " fill="#AAAAAA" transform="translate(140,172)"/>
<path d="M0 0 C6.0546875 -0.1953125 6.0546875 -0.1953125 8 0 C10 2 10 2 10.125 4.4375 C10.08375 5.283125 10.0425 6.12875 10 7 C10 7.99 10 8.98 10 10 C10 10.66 10 11.32 10 12 C7.50638429 10.79618552 5.31856917 9.54571278 3 8 C3 9.32 3 10.64 3 12 C2.01 12 1.02 12 0 12 C0 8.04 0 4.08 0 0 Z " fill="#51504F" transform="translate(74,173)"/>
<path d="M0 0 C0.33 0.66 0.66 1.32 1 2 C1.99 2 2.98 2 4 2 C4.4375 4.125 4.4375 4.125 4 7 C0.3820447 11.10034934 -4.41203893 14.09056127 -9 17 C-9.66 16.67 -10.32 16.34 -11 16 C-10.60167969 15.49210938 -10.20335938 14.98421875 -9.79296875 14.4609375 C-6.70313849 10.44641351 -4.18657579 6.59180915 -2 2 C-1.34 1.34 -0.68 0.68 0 0 Z " fill="#197FBA" transform="translate(110,140)"/>
<path d="M0 0 C4 4 4 4 5 6 C5.804375 5.01 6.60875 4.02 7.4375 3 C8.283125 2.01 9.12875 1.02 10 0 C10.33 0 10.66 0 11 0 C11 3.96 11 7.92 11 12 C9.68 11.01 8.36 10.02 7 9 C6.01 9.66 5.02 10.32 4 11 C2.68 11.33 1.36 11.66 0 12 C0 8.04 0 4.08 0 0 Z " fill="#AFAFAF" transform="translate(153,173)"/>
<path d="M0 0 C0.33 0.66 0.66 1.32 1 2 C1.66 2 2.32 2 3 2 C4.03283343 6.05755991 4.6661754 8.56622457 2.87109375 12.4296875 C0.30325821 16.35545111 -2.11764143 19.31871968 -6 22 C-5.80664062 21.46632812 -5.61328125 20.93265625 -5.4140625 20.3828125 C-3.6565339 15.35384453 -2.37822212 10.40596435 -1.4296875 5.1640625 C-1 3 -1 3 0 0 Z " fill="#1582C2" transform="translate(117,138)"/>
<path d="M0 0 C4.12172083 3.76843047 7.63068221 7.88904305 10 13 C9.67 13.66 9.34 14.32 9 15 C7.06182687 13.87616008 5.12448482 12.75088679 3.1875 11.625 C2.10855469 10.99851562 1.02960938 10.37203125 -0.08203125 9.7265625 C-2.08831093 8.53944654 -4.06034059 7.29310627 -6 6 C-4.68 6 -3.36 6 -2 6 C-1.855625 5.38125 -1.71125 4.7625 -1.5625 4.125 C-1 2 -1 2 0 0 Z " fill="#DE4D83" transform="translate(155,88)"/>
<path d="M0 0 C0.66 3.3 1.32 6.6 2 10 C-3.64951343 8.3967597 -8.83555068 6.85403778 -14 4 C-9.04773868 1.4321608 -5.70487241 0 0 0 Z " fill="#AB104C" transform="translate(97,111)"/>
<path d="M0 0 C0.28875 0.639375 0.5775 1.27875 0.875 1.9375 C1.82823451 4.15206079 1.82823451 4.15206079 4 5 C3.360625 5.268125 2.72125 5.53625 2.0625 5.8125 C-0.33131686 6.88667752 -0.33131686 6.88667752 -1 10 C-3.87109375 11.421875 -3.87109375 11.421875 -7.4375 12.75 C-8.61183594 13.19859375 -9.78617187 13.6471875 -10.99609375 14.109375 C-14 15 -14 15 -16 14 C-14.5665848 12.84906075 -13.12811091 11.70441965 -11.6875 10.5625 C-10.48673828 9.60537109 -10.48673828 9.60537109 -9.26171875 8.62890625 C-7 7 -7 7 -4 6 C-2.90833725 4.06669397 -2.90833725 4.06669397 -2 2 C-1.34 1.34 -0.68 0.68 0 0 Z " fill="#1E69A9" transform="translate(105,135)"/>
<path d="M0 0 C-2.02787387 2.02787387 -3.72503474 2.99419331 -6.25 4.3125 C-9.24299937 5.93190063 -11.86867011 7.57983797 -14.4375 9.8125 C-17 12 -17 12 -19 12 C-19 12.66 -19 13.32 -19 14 C-21.31 14.33 -23.62 14.66 -26 15 C-22.85698393 11.67738301 -19.89734291 9.33840575 -16 7 C-15.195625 6.154375 -14.39125 5.30875 -13.5625 4.4375 C-9.50245236 0.57550346 -5.51142865 -0.32420169 0 0 Z " fill="#9D24B9" transform="translate(147,50)"/>
<path d="M0 0 C0.99 0 1.98 0 3 0 C3.66 1.65 4.32 3.3 5 5 C6.70840281 3.36587557 7.93453047 2.13093906 9 0 C9.99 0 10.98 0 12 0 C12 3.96 12 7.92 12 12 C11.34 12 10.68 12 10 12 C9.67 9.69 9.34 7.38 9 5 C8.01 6.485 8.01 6.485 7 8 C6.01 7.67 5.02 7.34 4 7 C3.67 6.34 3.34 5.68 3 5 C2.67 7.31 2.34 9.62 2 12 C1.34 12 0.68 12 0 12 C0 8.04 0 4.08 0 0 Z " fill="#20201F" transform="translate(97,173)"/>
<path d="M0 0 C0.66 0.33 1.32 0.66 2 1 C3.37342831 1.0689472 4.75002102 1.08467708 6.125 1.0625 C7.40375 1.041875 8.6825 1.02125 10 1 C10 1.66 10 2.32 10 3 C10.99 3.33 11.98 3.66 13 4 C12.01 4 11.02 4 10 4 C10 4.66 10 5.32 10 6 C11.32 6.33 12.64 6.66 14 7 C10.22044143 8.25985286 7.15576548 7.64024579 3.3125 7.0625 C2.2596582 6.91264648 2.2596582 6.91264648 1.18554688 6.75976562 C-0.54386527 6.51270675 -2.2720627 6.25717148 -4 6 C-1.125 1.125 -1.125 1.125 0 0 Z " fill="#CD356C" transform="translate(126,64)"/>
<path d="M0 0 C1.9375 0.375 1.9375 0.375 4 1 C5.1482685 3.296537 5.11561175 4.58313167 5.09765625 7.1328125 C5.09282227 8.34130859 5.09282227 8.34130859 5.08789062 9.57421875 C5.07951172 10.41597656 5.07113281 11.25773437 5.0625 12.125 C5.05798828 12.97449219 5.05347656 13.82398437 5.04882812 14.69921875 C5.03702874 16.79950909 5.01909306 18.8997633 5 21 C4.71640625 20.43152344 4.4328125 19.86304687 4.140625 19.27734375 C3.39269492 17.784045 2.63264517 16.29674195 1.859375 14.81640625 C-1.1646833 8.67245681 -1.1646833 8.67245681 -0.25 4.9375 C0.1625 4.298125 0.575 3.65875 1 3 C0.34 3 -0.32 3 -1 3 C-1.33 3.66 -1.66 4.32 -2 5 C-2 4.01 -2 3.02 -2 2 C-1.34 2 -0.68 2 0 2 C0 1.34 0 0.68 0 0 Z " fill="#741B85" transform="translate(126,101)"/>
<path d="M0 0 C2.1875 -0.375 2.1875 -0.375 5 0 C6.99022836 1.83961648 8.38989899 3.79186148 10 6 C9.67 6.66 9.34 7.32 9 8 C8.34 7.34 7.68 6.68 7 6 C6.34 6.66 5.68 7.32 5 8 C4.01 8 3.02 8 2 8 C1.67 12.95 1.34 17.9 1 23 C0.67 23 0.34 23 0 23 C-0.06058594 21.89140625 -0.12117188 20.7828125 -0.18359375 19.640625 C-0.26802951 18.1770718 -0.35267599 16.71353075 -0.4375 15.25 C-0.47681641 14.52039063 -0.51613281 13.79078125 -0.55664062 13.0390625 C-0.76147098 9.5727027 -1.0852002 6.34666974 -2 3 C-1.34 3 -0.68 3 0 3 C0 2.01 0 1.02 0 0 Z " fill="#383596" transform="translate(110,93)"/>
<path d="M0 0 C3.375 -0.125 3.375 -0.125 7 0 C9 2 9 2 9.1875 4.5625 C9 7 9 7 8 8 C5.66702567 8.04092937 3.33294775 8.04241723 1 8 C0.67 9.32 0.34 10.64 0 12 C0 8.04 0 4.08 0 0 Z " fill="#AAAAAA" transform="translate(119,173)"/>
<path d="M0 0 C0.99 0.33 1.98 0.66 3 1 C3.33 1.99 3.66 2.98 4 4 C4.33 2.68 4.66 1.36 5 0 C7.16099373 2.16099373 7.71563716 3.5210418 8.6875 6.375 C8.95949219 7.14585938 9.23148438 7.91671875 9.51171875 8.7109375 C10.04278009 11.20055308 9.81115526 12.61553018 9 15 C7.29490284 13.45672226 5.6113326 11.8896325 3.9375 10.3125 C2.99777344 9.44238281 2.05804688 8.57226562 1.08984375 7.67578125 C-1 5 -1 5 -0.80859375 2.16796875 C-0.54175781 1.45253906 -0.27492187 0.73710938 0 0 Z " fill="#B155A3" transform="translate(139,99)"/>
<path d="M0 0 C1.8125 1.0625 1.8125 1.0625 3.125 3.9375 C3.8125 7.0625 3.8125 7.0625 2.8125 10.0625 C0.8125 9.0625 0.8125 9.0625 -0.1875 7.0625 C-0.5175 8.0525 -0.8475 9.0425 -1.1875 10.0625 C-4.07187779 8.76950306 -6.05969421 7.40308637 -8.1875 5.0625 C-6.53346914 1.75443828 -3.68728769 0.10535108 0 0 Z " fill="#9C4394" transform="translate(140.1875,92.9375)"/>
<path d="M0 0 C2.97 0 5.94 0 9 0 C9 0.66 9 1.32 9 2 C6.69 2 4.38 2 2 2 C2 2.99 2 3.98 2 5 C4.31 5 6.62 5 9 5 C9 5.66 9 6.32 9 7 C6.69 7 4.38 7 2 7 C2 7.99 2 8.98 2 10 C4.31 10 6.62 10 9 10 C9 10.66 9 11.32 9 12 C6.03 12 3.06 12 0 12 C0 8.04 0 4.08 0 0 Z " fill="#191717" transform="translate(86,173)"/>
<path d="M0 0 C2.64 0.33 5.28 0.66 8 1 C7.06409496 2.1055189 6.12620142 3.20935453 5.1875 4.3125 C4.66542969 4.92738281 4.14335938 5.54226562 3.60546875 6.17578125 C0.49738345 9.70735262 0.49738345 9.70735262 -1 11 C-4.48032201 10.73897585 -6.05096298 9.96602468 -9 8 C-6.36 7.67 -3.72 7.34 -1 7 C-0.67 4.69 -0.34 2.38 0 0 Z " fill="#E38163" transform="translate(89,81)"/>
<path d="M0 0 C1.32 0 2.64 0 4 0 C2.6062718 4.43458973 0.39417765 6.87378374 -3 10 C-6.77545388 8.90931332 -9.47043472 8.0916909 -12 5 C-9.69 5.33 -7.38 5.66 -5 6 C-4.34 4.68 -3.68 3.36 -3 2 C-2.01 2 -1.02 2 0 2 C0 1.34 0 0.68 0 0 Z " fill="#F8F3F0" transform="translate(100,72)"/>
<path d="M0 0 C3.12572333 2.69159509 4.8036782 5.9634132 6.75 9.5625 C7.38421875 10.71878906 8.0184375 11.87507813 8.671875 13.06640625 C9.11015625 14.03449219 9.5484375 15.00257812 10 16 C9.67 16.66 9.34 17.32 9 18 C7.68 18 6.36 18 5 18 C2.67344909 12.01589463 0.57065878 6.41991126 0 0 Z " fill="#F5EFF4" transform="translate(120,102)"/>
<path d="M0 0 C1.32 0 2.64 0 4 0 C5.16691444 3.48419134 4.85285758 6.10222787 4.1875 9.6875 C3.93033203 11.14736328 3.93033203 11.14736328 3.66796875 12.63671875 C3.44753906 13.41660156 3.22710937 14.19648437 3 15 C2.01 15.495 2.01 15.495 1 16 C-0.79074734 10.10106757 -1.08360869 6.06820868 0 0 Z " fill="#195693" transform="translate(99,104)"/>
<path d="M0 0 C-1.45044271 4.10958767 -3.51110752 7.43258745 -6 11 C-6.66 10.01 -7.32 9.02 -8 8 C-8.66 8 -9.32 8 -10 8 C-10.33 9.65 -10.66 11.3 -11 13 C-11.99 13 -12.98 13 -14 13 C-14.33 12.34 -14.66 11.68 -15 11 C-12.27240035 7.16115605 -10.35010868 5.64598707 -6 4 C-5.67 3.01 -5.34 2.02 -5 1 C-2 0 -2 0 0 0 Z " fill="#6325A0" transform="translate(125,64)"/>
<path d="M0 0 C0.33 0.66 0.66 1.32 1 2 C0.67 2.66 0.34 3.32 0 4 C0.66 4.33 1.32 4.66 2 5 C1.34 5 0.68 5 0 5 C-0.33 5.66 -0.66 6.32 -1 7 C-1.66 6.67 -2.32 6.34 -3 6 C-3 6.99 -3 7.98 -3 9 C-1.35 9 0.3 9 2 9 C2 8.34 2 7.68 2 7 C3.32 7.33 4.64 7.66 6 8 C2.44360764 10.30119506 -0.94718288 11.77472971 -5 13 C-5.33 12.34 -5.66 11.68 -6 11 C-6.99 11 -7.98 11 -9 11 C-7.49770909 7.17598678 -5.1988409 5.4791017 -2 3 C-1.34 2.01 -0.68 1.02 0 0 Z " fill="#433B9E" transform="translate(93,85)"/>
<path d="M0 0 C6.32233475 3.43212458 10.52862422 8.50659547 15 14 C11.61976483 14 9.16531063 13.12544378 6 12 C6 11.34 6 10.68 6 10 C5.34 9.67 4.68 9.34 4 9 C4 7.68 4 6.36 4 5 C3.01 4.67 2.02 4.34 1 4 C0.3125 1.9375 0.3125 1.9375 0 0 Z " fill="#EB6BA7" transform="translate(158,74)"/>
<path d="M0 0 C5.29268888 2.08871502 10.15906734 5.0372434 15 8 C12 9 12 9 8 9 C8 8.01 8 7.02 8 6 C6.02 6 4.04 6 2 6 C2.33 5.34 2.66 4.68 3 4 C-2.13186391 1.76303368 -6.62205038 1.6662685 -12 3 C-12.66 3.66 -13.32 4.32 -14 5 C-14.66 4.34 -15.32 3.68 -16 3 C-11.09749548 -1.28251566 -6.22148242 -1.12303614 0 0 Z " fill="#ECA364" transform="translate(80,73)"/>
<path d="M0 0 C3.01527738 1.40577121 5.5947941 3.06126148 8.25 5.0625 C8.95640625 5.58972656 9.6628125 6.11695312 10.390625 6.66015625 C11.18726563 7.32337891 11.18726563 7.32337891 12 8 C12 8.33 12 8.66 12 9 C7.38 9 2.76 9 -2 9 C-2.33 8.34 -2.66 7.68 -3 7 C-2.01 6.34 -1.02 5.68 0 5 C0 3.68 0 2.36 0 1 C0 0.67 0 0.34 0 0 Z " fill="#F1AC62" transform="translate(156,63)"/>
<path d="M0 0 C0.99 0.66 1.98 1.32 3 2 C2.071875 2.1546875 2.071875 2.1546875 1.125 2.3125 C-1.36526484 2.87525373 -1.36526484 2.87525373 -3 6 C-4.43791516 5.85831863 -5.8753237 5.71148957 -7.3125 5.5625 C-8.11300781 5.48128906 -8.91351563 5.40007812 -9.73828125 5.31640625 C-12 5 -12 5 -15 4 C-10.59834814 -0.69509532 -6.09594619 -0.88856165 0 0 Z " fill="#D0554E" transform="translate(74,86)"/>
<path d="M0 0 C1.2684375 0.12375 1.2684375 0.12375 2.5625 0.25 C4.5625 3.25 4.5625 3.25 4.25 5.375 C3.5625 7.25 3.5625 7.25 2.5625 8.25 C0.0625 8.375 0.0625 8.375 -2.4375 8.25 C-3.4375 7.25 -3.4375 7.25 -3.5625 4.25 C-3.39994635 0.34871245 -3.39994635 0.34871245 0 0 Z " fill="#EDECED" transform="translate(66.4375,174.75)"/>
<path d="M0 0 C0.66 0 1.32 0 2 0 C4.14699969 3.44175522 4.09856795 5.7720292 3.625 9.75 C3.51414062 10.73484375 3.40328125 11.7196875 3.2890625 12.734375 C3.19367188 13.48203125 3.09828125 14.2296875 3 15 C1.31843245 12.47764868 -0.16468006 9.96413358 -1.625 7.3125 C-2.29402344 6.10013672 -2.29402344 6.10013672 -2.9765625 4.86328125 C-3.31429687 4.24839844 -3.65203125 3.63351563 -4 3 C-3.01 3 -2.02 3 -1 3 C-0.67 2.01 -0.34 1.02 0 0 Z " fill="#8427BB" transform="translate(118,105)"/>
<path d="M0 0 C1.33650858 4.00952575 1.20225023 7.82016197 1 12 C0.34 12.66 -0.32 13.32 -1 14 C-1.18175781 13.32453125 -1.36351563 12.6490625 -1.55078125 11.953125 C-1.80214844 11.06109375 -2.05351563 10.1690625 -2.3125 9.25 C-2.55613281 8.36828125 -2.79976563 7.4865625 -3.05078125 6.578125 C-4.02125331 3.94227495 -5.21005644 2.14592674 -7 0 C-4.3333581 -1.33332095 -2.83319697 -0.67102033 0 0 Z " fill="#8F0F47" transform="translate(122,132)"/>
<path d="M0 0 C0 0.66 0 1.32 0 2 C-4.29 4.31 -8.58 6.62 -13 9 C-11 5 -11 5 -9 3 C-9 2.01 -9 1.02 -9 0 C-5.93109813 -1.53445094 -3.29905734 -0.54984289 0 0 Z " fill="#F7F1F6" transform="translate(132,50)"/>
<path d="M0 0 C4.89599781 4.01471821 8.98528179 8.10400219 13 13 C10.03 12.01 7.06 11.02 4 10 C3.67 8.35 3.34 6.7 3 5 C2.34 5 1.68 5 1 5 C0.67 6.32 0.34 7.64 0 9 C0 6.03 0 3.06 0 0 Z " fill="#F6F2F7" transform="translate(135,101)"/>
<path d="M0 0 C0.66 0.2475 1.32 0.495 2 0.75 C2.7425 0.935625 3.485 1.12125 4.25 1.3125 C4.8275 1.456875 5.405 1.60125 6 1.75 C6 2.41 6 3.07 6 3.75 C5.01 3.75 4.02 3.75 3 3.75 C3.33 5.73 3.66 7.71 4 9.75 C3.34 9.75 2.68 9.75 2 9.75 C2 9.09 2 8.43 2 7.75 C1.01 7.75 0.02 7.75 -1 7.75 C-1 6.76 -1 5.77 -1 4.75 C-3.475 3.76 -3.475 3.76 -6 2.75 C-2.56140351 -0.32017544 -2.56140351 -0.32017544 0 0 Z " fill="#6C197B" transform="translate(122,84.25)"/>
<path d="M0 0 C0.99 0 1.98 0 3 0 C3 3.3 3 6.6 3 10 C4.98 10 6.96 10 9 10 C9 10.66 9 11.32 9 12 C6.03 12 3.06 12 0 12 C0 8.04 0 4.08 0 0 Z " fill="#4C4C4C" transform="translate(51,173)"/>
<path d="M0 0 C4.91342495 4.91342495 5.15794494 13.54092907 5.20654297 20.2043457 C5.17923337 23.13802681 5.10813858 26.06824298 5 29 C4.67 29 4.34 29 4 29 C4 24.71 4 20.42 4 16 C3.34 16 2.68 16 2 16 C2 13.36 2 10.72 2 8 C1.34 8 0.68 8 0 8 C0 5.36 0 2.72 0 0 Z " fill="#CE3678" transform="translate(122,112)"/>
<path d="M0 0 C0.99 0.33 1.98 0.66 3 1 C2.38441495 5.0013028 0.36262141 7.77824353 -2 11 C-2.99 11.495 -2.99 11.495 -4 12 C-4 11.01 -4 10.02 -4 9 C-4.99 9 -5.98 9 -7 9 C-5.86546113 5.5963834 -4.91520035 4.91310023 -2 3 C-1.67 3 -1.34 3 -1 3 C-0.67 2.01 -0.34 1.02 0 0 Z " fill="#452B97" transform="translate(115,71)"/>
<path d="M0 0 C0.33 0 0.66 0 1 0 C0.85923685 1.9587043 0.7122324 3.91696093 0.5625 5.875 C0.48128906 6.96554688 0.40007812 8.05609375 0.31640625 9.1796875 C0 12 0 12 -1 14 C-1.66 14 -2.32 14 -3 14 C-3.33 13.34 -3.66 12.68 -4 12 C-6.02463255 11.34786708 -6.02463255 11.34786708 -8 11 C-7.38511719 10.31164062 -7.38511719 10.31164062 -6.7578125 9.609375 C-6.21898438 8.99578125 -5.68015625 8.3821875 -5.125 7.75 C-4.59132813 7.14671875 -4.05765625 6.5434375 -3.5078125 5.921875 C-2.0202513 4.02581254 -0.99677564 2.18709995 0 0 Z " fill="#ECEAF2" transform="translate(120,148)"/>
<path d="M0 0 C3.40269585 3.87203321 7 8.60896963 7 14 C3.61768919 12.60042311 1.72071358 11.26935579 0 8 C-0.24493747 5.27963064 -0.13708782 2.74175634 0 0 Z " fill="#C83777" transform="translate(111,104)"/>
<path d="M0 0 C4.29 0.99 8.58 1.98 13 3 C12.34 4.65 11.68 6.3 11 8 C10.67 8.99 10.34 9.98 10 11 C9.52949219 10.45730469 9.05898437 9.91460937 8.57421875 9.35546875 C7.95160156 8.64003906 7.32898438 7.92460938 6.6875 7.1875 C6.07261719 6.47980469 5.45773438 5.77210937 4.82421875 5.04296875 C3.27480709 3.30776041 1.64493533 1.64493533 0 0 Z " fill="#F7F1F7" transform="translate(148,81)"/>
<path d="M0 0 C2.475 0.99 2.475 0.99 5 2 C5 2.66 5 3.32 5 4 C4.01 4 3.02 4 2 4 C2.99 5.65 3.98 7.3 5 9 C1.77208445 11.1519437 0.71599191 11.20086443 -3 11 C-3.33 10.34 -3.66 9.68 -4 9 C-3.01 8.34 -2.02 7.68 -1 7 C-0.83329727 3.95826106 -0.83329727 3.95826106 -1 1 C-0.67 0.67 -0.34 0.34 0 0 Z " fill="#DD5490" transform="translate(153,71)"/>
<path d="M0 0 C0.33 0.66 0.66 1.32 1 2 C1.99 2 2.98 2 4 2 C4 2.66 4 3.32 4 4 C2.57421875 5.2890625 2.57421875 5.2890625 0.6875 6.625 C0.07261719 7.07101563 -0.54226562 7.51703125 -1.17578125 7.9765625 C-3 9 -3 9 -6 9 C-5.38983051 3.50847458 -5.38983051 3.50847458 -3.5625 1.125 C-2 0 -2 0 0 0 Z " fill="#9629CD" transform="translate(115,64)"/>
<path d="M0 0 C2.62438233 0.6962647 4.72333275 1.46298043 7.0625 2.8125 C7.0625 3.4725 7.0625 4.1325 7.0625 4.8125 C0.6275 5.3075 0.6275 5.3075 -5.9375 5.8125 C-5.9375 2.8125 -5.9375 2.8125 -4.8125 1.0625 C-2.9375 -0.1875 -2.9375 -0.1875 0 0 Z " fill="#F7BD55" transform="translate(162.9375,54.1875)"/>
<path d="M0 0 C2 1 2 1 2.81640625 3.21484375 C3.06261719 4.11332031 3.30882813 5.01179688 3.5625 5.9375 C4.549513 9.55797321 4.549513 9.55797321 6 13 C6.66 13 7.32 13 8 13 C8.33 13.99 8.66 14.98 9 16 C3.44989775 14.55214724 3.44989775 14.55214724 1.625 12.3125 C0.77529504 9.16859163 0.87544176 6.23851421 1 3 C-0.65 3 -2.3 3 -4 3 C-2.68 2.01 -1.36 1.02 0 0 Z " fill="#981C55" transform="translate(96,108)"/>
<path d="M0 0 C2.88437779 1.29299694 4.87219421 2.65941363 7 5 C6.690625 5.804375 6.38125 6.60875 6.0625 7.4375 C4.81434483 11.62249087 4.3662304 15.66306101 4 20 C3.67 20 3.34 20 3 20 C2.86722656 18.89140625 2.73445312 17.7828125 2.59765625 16.640625 C2.41940243 15.1770673 2.24100972 13.71352651 2.0625 12.25 C1.97548828 11.52039063 1.88847656 10.79078125 1.79882812 10.0390625 C1.37972591 6.62415558 0.882726 3.32396457 0 0 Z " fill="#E7D6E5" transform="translate(128,96)"/>
<path d="M0 0 C2.31 0 4.62 0 7 0 C7 1.32 7 2.64 7 4 C8.65 4 10.3 4 12 4 C10 6 10 6 8.0546875 6.1953125 C6.03645833 6.13020833 4.01822917 6.06510417 2 6 C1.34 4.02 0.68 2.04 0 0 Z " fill="#13439B" transform="translate(73,99)"/>
<path d="M0 0 C1.32 0 2.64 0 4 0 C5.42944945 2.35438733 6.08661261 3.48032433 5.625 6.25 C5.41875 6.8275 5.2125 7.405 5 8 C5 7.01 5 6.02 5 5 C3.02 5.33 1.04 5.66 -1 6 C-1 6.66 -1 7.32 -1 8 C-1.66 8 -2.32 8 -3 8 C-3 6.35 -3 4.7 -3 3 C-2.01 3 -1.02 3 0 3 C0 2.01 0 1.02 0 0 Z " fill="#0C448F" transform="translate(104,96)"/>
<path d="M0 0 C-1.93254772 2.0245738 -3.63158688 3.42105792 -6 5 C-9.6875 4.625 -9.6875 4.625 -13 4 C-13 3.34 -13 2.68 -13 2 C-12.34 2 -11.68 2 -11 2 C-11 1.34 -11 0.68 -11 0 C-7.18243176 -1.37432457 -3.92744671 -0.67975039 0 0 Z " fill="#EFA358" transform="translate(163,55)"/>
<path d="M0 0 C0.66 0 1.32 0 2 0 C2 2.97 2 5.94 2 9 C-1.3 9 -4.6 9 -8 9 C-8 8.67 -8 8.34 -8 8 C-5.03 8 -2.06 8 1 8 C1 7.34 1 6.68 1 6 C-1.31 6 -3.62 6 -6 6 C-6 5.01 -6 4.02 -6 3 C-3.69 3 -1.38 3 1 3 C0.67 2.01 0.34 1.02 0 0 Z " fill="#EAEAEA" transform="translate(94,177)"/>
<path d="M0 0 C0.33 0.66 0.66 1.32 1 2 C1.99 2 2.98 2 4 2 C4.25 4.3125 4.25 4.3125 4 7 C2 8.8125 2 8.8125 0 10 C0 9.01 0 8.02 0 7 C-0.99 6.67 -1.98 6.34 -3 6 C-2.625 3.5625 -2.625 3.5625 -2 1 C-1.34 0.67 -0.68 0.34 0 0 Z " fill="#166EAD" transform="translate(110,140)"/>
<path d="M0 0 C4.29 0 8.58 0 13 0 C13 1.32 13 2.64 13 4 C11.3745692 3.85904936 9.74965949 3.71207913 8.125 3.5625 C7.22007813 3.48128906 6.31515625 3.40007812 5.3828125 3.31640625 C3 3 3 3 1 2 C0.67 2.66 0.34 3.32 0 4 C0 2.68 0 1.36 0 0 Z " fill="#F2995B" transform="translate(64,77)"/>
<path d="M0 0 C1.98 0.99 3.96 1.98 6 3 C4.56375905 7.30872286 3.45397435 8.54602565 0 12 C0 8.04 0 4.08 0 0 Z " fill="#EDF4F7" transform="translate(104,124)"/>
<path d="M0 0 C0.66 0.33 1.32 0.66 2 1 C4.00800456 0.71887936 6.01014051 0.38932033 8 0 C4.87378374 3.39417765 2.43458973 5.6062718 -2 7 C-2.66 5.68 -3.32 4.36 -4 3 C-2.68 2.01 -1.36 1.02 0 0 Z " fill="#AB25D0" transform="translate(118,60)"/>
<path d="M0 0 C0.33 0 0.66 0 1 0 C1 3.96 1 7.92 1 12 C-0.65 10.68 -2.3 9.36 -4 8 C-3.4021799 4.65220745 -2.20964398 2.57791798 0 0 Z " fill="#9C9C9C" transform="translate(163,173)"/>
<path d="M0 0 C0 0.99 0 1.98 0 3 C1.32 2.34 2.64 1.68 4 1 C4.33 1.99 4.66 2.98 5 4 C2.87875034 4.86343824 0.75286928 5.71550648 -1.375 6.5625 C-3.15003906 7.27599609 -3.15003906 7.27599609 -4.9609375 8.00390625 C-8 9 -8 9 -10 8 C-9.36191406 7.50628906 -8.72382812 7.01257813 -8.06640625 6.50390625 C-7.24011719 5.86324219 -6.41382812 5.22257813 -5.5625 4.5625 C-4.73878906 3.92441406 -3.91507812 3.28632813 -3.06640625 2.62890625 C-1.12498733 1.16417803 -1.12498733 1.16417803 0 0 Z " fill="#2981B8" transform="translate(99,141)"/>
<path d="M0 0 C0.66 0 1.32 0 2 0 C2 4.29 2 8.58 2 13 C1.34 13 0.68 13 0 13 C-1.4617773 8.6146681 -2.44935236 5.47981638 -1 1 C-0.67 0.67 -0.34 0.34 0 0 Z " fill="#1479B7" transform="translate(108,108)"/>
<path d="M0 0 C0.33 0.66 0.66 1.32 1 2 C2.60407328 2.02708567 4.2082785 2.04643483 5.8125 2.0625 C7.15248047 2.07990234 7.15248047 2.07990234 8.51953125 2.09765625 C11.13413791 2.11009967 11.13413791 2.11009967 14 1 C14 2.32 14 3.64 14 5 C14.99 5.33 15.98 5.66 17 6 C13.22420549 7.25859817 12.60859968 6.49050856 9 5 C6.01643165 4.25285431 3.01292059 3.61702513 0 3 C0 2.01 0 1.02 0 0 Z " fill="#A91C63" transform="translate(114,80)"/>
<path d="M0 0 C0.33 0.66 0.66 1.32 1 2 C0.67 2.99 0.34 3.98 0 5 C0.66 5 1.32 5 2 5 C1.67 6.32 1.34 7.64 1 9 C-1.64 8.67 -4.28 8.34 -7 8 C-6.02133662 6.85373678 -5.04205413 5.70800212 -4.0625 4.5625 C-3.51722656 3.92441406 -2.97195312 3.28632812 -2.41015625 2.62890625 C-1.63204305 1.73008851 -0.84063472 0.84063472 0 0 Z " fill="#8334BC" transform="translate(109,68)"/>
<path d="M0 0 C0.66 0 1.32 0 2 0 C1.34 2.64 0.68 5.28 0 8 C-3.3 8.66 -6.6 9.32 -10 10 C-7.86274108 7.78358334 -5.73140926 5.78762592 -3.3125 3.875 C-0.93242212 2.20909046 -0.93242212 2.20909046 0 0 Z " fill="#DAEDF3" transform="translate(114,145)"/>
<path d="M0 0 C3.875 1.75 3.875 1.75 5 4 C4.34 4 3.68 4 3 4 C1.42726432 6.8424854 1.42726432 6.8424854 1 10 C0.01 9.67 -0.98 9.34 -2 9 C-2.6875 6.75 -2.6875 6.75 -3 4 C-1.5625 1.6875 -1.5625 1.6875 0 0 Z " fill="#134684" transform="translate(110,128)"/>
<path d="M0 0 C0.33 1.65 0.66 3.3 1 5 C-0.32 4.67 -1.64 4.34 -3 4 C-3 4.66 -3 5.32 -3 6 C-2.67 6.33 -2.34 6.66 -2 7 C-1.67 7.99 -1.34 8.98 -1 10 C-1.66 10 -2.32 10 -3 10 C-3.33 10.66 -3.66 11.32 -4 12 C-6 10 -6 10 -6.25 7.625 C-5.98992823 4.89424643 -5.4753536 3.29499448 -4 1 C-2 0 -2 0 0 0 Z " fill="#5E1370" transform="translate(129,97)"/>
<path d="M0 0 C1.46067199 0.45082469 2.91848032 0.91093537 4.375 1.375 C5.18710938 1.63023438 5.99921875 1.88546875 6.8359375 2.1484375 C9 3 9 3 11 5 C10.01 5.66 9.02 6.32 8 7 C8 7.66 8 8.32 8 9 C3.97841331 7.6594711 3.16886165 5.54247403 1 2 C0.67 1.34 0.34 0.68 0 0 Z " fill="#F7EDF8" transform="translate(138,90)"/>
<path d="M0 0 C1.65 1.32 3.3 2.64 5 4 C4.49396008 6.16874252 4.00016187 7.99967627 3 10 C2.01 10 1.02 10 0 10 C0.33 9.01 0.66 8.02 1 7 C0.01 6.01 -0.98 5.02 -2 4 C-1.34 3.67 -0.68 3.34 0 3 C0 2.01 0 1.02 0 0 Z " fill="#D53F77" transform="translate(150,83)"/>
<path d="M0 0 C0.94875 0.350625 1.8975 0.70125 2.875 1.0625 C0.34711993 3.86122437 -1.32911134 5.52023019 -5.125 6.0625 C-6.125 4.0625 -6.125 4.0625 -5.8125 2 C-4.58619714 -1.45594443 -3.33371717 -1.00011515 0 0 Z " fill="#90368D" transform="translate(137.125,90.9375)"/>
<path d="M0 0 C4.95 0.33 9.9 0.66 15 1 C15 1.66 15 2.32 15 3 C13.25406097 3.27694205 11.50281592 3.52057383 9.75 3.75 C8.77546875 3.88921875 7.8009375 4.0284375 6.796875 4.171875 C4 4 4 4 0 0 Z " fill="#F8EFE2" transform="translate(155,71)"/>
<path d="M0 0 C0.99 0 1.98 0 3 0 C3 3.96 3 7.92 3 12 C2.34 12 1.68 12 1 12 C0.67 9.69 0.34 7.38 0 5 C-0.99 5.495 -0.99 5.495 -2 6 C-1.34 4.02 -0.68 2.04 0 0 Z " fill="#282727" transform="translate(106,173)"/>
<path d="M0 0 C0.94928272 2.56306335 1.06529109 3.78780395 0.25 6.4375 C-3.25806452 13.62903226 -3.25806452 13.62903226 -6 15 C-6.25 12.75 -6.25 12.75 -6 10 C-4.68870078 8.64499081 -3.35308313 7.31328657 -2 6 C-0.73215876 2.86649283 -0.73215876 2.86649283 0 0 Z " fill="#E3896E" transform="translate(62,80)"/>
<path d="M0 0 C0.66 0.33 1.32 0.66 2 1 C2 4.3 2 7.6 2 11 C1.01 11 0.02 11 -1 11 C-2.23076923 4.6 -2.23076923 4.6 -1.0625 1.5625 C-0.711875 1.046875 -0.36125 0.53125 0 0 Z " fill="#BFBFBF" transform="translate(140,172)"/>
<path d="M0 0 C0.33 0 0.66 0 1 0 C1 3.3 1 6.6 1 10 C0.34 10 -0.32 10 -1 10 C-1.33 10.99 -1.66 11.98 -2 13 C-4.42857143 5.57142857 -4.42857143 5.57142857 -3 2 C-2.01 3.485 -2.01 3.485 -1 5 C-0.67 3.35 -0.34 1.7 0 0 Z " fill="#BC2181" transform="translate(121,112)"/>
<path d="M0 0 C0 0.66 0 1.32 0 2 C0.99 2 1.98 2 3 2 C3.33 4.31 3.66 6.62 4 9 C2.85073734 8.04578192 1.70569459 7.08647955 0.5625 6.125 C-0.07558594 5.59132813 -0.71367187 5.05765625 -1.37109375 4.5078125 C-3 3 -3 3 -4 1 C-2 0 -2 0 0 0 Z " fill="#C573B0" transform="translate(145,105)"/>
<path d="M0 0 C0.33 0 0.66 0 1 0 C1.02698189 1.62490954 1.04638757 3.24994633 1.0625 4.875 C1.07410156 5.77992188 1.08570313 6.68484375 1.09765625 7.6171875 C1 10 1 10 0 12 C-2.9737344 13.09036928 -3.88407501 13.03864166 -7 12 C-7 11.34 -7 10.68 -7 10 C-4.625 8.9375 -4.625 8.9375 -2 8 C-1.34 8.33 -0.68 8.66 0 9 C0 6.03 0 3.06 0 0 Z " fill="#919191" transform="translate(149,173)"/>
<path d="M0 0 C0.99 0 1.98 0 3 0 C3.66 3.3 4.32 6.6 5 10 C4.01 9.67 3.02 9.34 2 9 C2 8.01 2 7.02 2 6 C0.68 5.67 -0.64 5.34 -2 5 C-2 4.34 -2 3.68 -2 3 C-1.34 3 -0.68 3 0 3 C0 2.01 0 1.02 0 0 Z " fill="#A60E42" transform="translate(94,111)"/>
<path d="M0 0 C0 0.99 0 1.98 0 3 C-0.66 3 -1.32 3 -2 3 C-2 4.32 -2 5.64 -2 7 C-3.32 6.67 -4.64 6.34 -6 6 C-6 4.35 -6 2.7 -6 1 C-3 0 -3 0 0 0 Z " fill="#7C2583" transform="translate(131,87)"/>
<path d="M0 0 C0.66 0.33 1.32 0.66 2 1 C2 5.29 2 9.58 2 14 C1.34 12.68 0.68 11.36 0 10 C-0.4125 9.195625 -0.825 8.39125 -1.25 7.5625 C-2.19573583 4.33123591 -1.50886081 2.93389602 0 0 Z " fill="#9E4999" transform="translate(129,108)"/>
<path d="M0 0 C2.96865509 2.54456151 4.3619751 5.48994665 6 9 C5.01 9.99 4.02 10.98 3 12 C2.49663233 10.37604003 1.99741024 8.75079459 1.5 7.125 C1.2215625 6.22007813 0.943125 5.31515625 0.65625 4.3828125 C0 2 0 2 0 0 Z " fill="#E1D1E7" transform="translate(120,102)"/>
<path d="M0 0 C0.33 0.66 0.66 1.32 1 2 C1.99 2.33 2.98 2.66 4 3 C2.35 6.3 0.7 9.6 -1 13 C-2.40742022 10.18515955 -1.66652164 8.43063887 -1.0625 5.375 C-0.86785156 4.37210938 -0.67320313 3.36921875 -0.47265625 2.3359375 C-0.31667969 1.56507813 -0.16070312 0.79421875 0 0 Z " fill="#BF2F6F" transform="translate(121,146)"/>
<path d="M0 0 C1.875 0.125 1.875 0.125 4 1 C5.64661571 4.6068725 6.27162597 6.1851221 5 10 C2.17940253 8.58970126 2.01898286 6.92108419 1 4 C0.64141484 2.67323492 0.2981424 1.34164079 0 0 Z " fill="#A54C99" transform="translate(138,93)"/>
<path d="M0 0 C0 0.99 0 1.98 0 3 C-1.65 3 -3.3 3 -5 3 C-5 3.66 -5 4.32 -5 5 C-6.65 5 -8.3 5 -10 5 C-10 4.01 -10 3.02 -10 2 C-6.7 1.34 -3.4 0.68 0 0 Z " fill="#4239A9" transform="translate(100,89)"/>
<path d="M0 0 C2.475 0.99 2.475 0.99 5 2 C4.67 2.99 4.34 3.98 4 5 C3.34 5 2.68 5 2 5 C2 5.66 2 6.32 2 7 C1.01 7 0.02 7 -1 7 C-1 6.34 -1 5.68 -1 5 C-1.66 4.67 -2.32 4.34 -3 4 C-2.01 4 -1.02 4 0 4 C0 2.68 0 1.36 0 0 Z " fill="#712EBC" transform="translate(104,75)"/>
<path d="M0 0 C0.66 0.33 1.32 0.66 2 1 C1.34 2.65 0.68 4.3 0 6 C-2.31 6.33 -4.62 6.66 -7 7 C-4.66666667 4.66666667 -2.33333333 2.33333333 0 0 Z " fill="#8122B1" transform="translate(128,58)"/>
<path d="M0 0 C6.15234375 -0.09765625 6.15234375 -0.09765625 8 0 C9 1 9 1 9.0625 3.5625 C9.041875 4.366875 9.02125 5.17125 9 6 C8.01 5.67 7.02 5.34 6 5 C6 4.01 6 3.02 6 2 C4.35 1.67 2.7 1.34 1 1 C1 2.65 1 4.3 1 6 C0.67 6 0.34 6 0 6 C0 4.02 0 2.04 0 0 Z " fill="#100F0E" transform="translate(75,174)"/>
<path d="M0 0 C2.475 0.99 2.475 0.99 5 2 C4.34 3.32 3.68 4.64 3 6 C1.68 6 0.36 6 -1 6 C-1.33 5.01 -1.66 4.02 -2 3 C-1.34 2.01 -0.68 1.02 0 0 Z " fill="#F4F0F3" transform="translate(82,114)"/>
<path d="M0 0 C0.33 0 0.66 0 1 0 C1 1.65 1 3.3 1 5 C-1.78823655 6.0326802 -2.8677274 6.04509293 -5.75 5.0625 C-6.4925 4.711875 -7.235 4.36125 -8 4 C-4.91190305 2.23537317 -3.76687864 2 0 2 C0 1.34 0 0.68 0 0 Z " fill="#E3735D" transform="translate(88,86)"/>
<path d="M0 0 C2.97 0 5.94 0 9 0 C9 0.66 9 1.32 9 2 C6.69 2 4.38 2 2 2 C2 2.99 2 3.98 2 5 C1.34 5 0.68 5 0 5 C0 3.35 0 1.7 0 0 Z " fill="#262525" transform="translate(86,173)"/>
<path d="M0 0 C0.99 0.33 1.98 0.66 3 1 C3.29296875 7.0546875 3.29296875 7.0546875 3 9 C2.01 9.66 1.02 10.32 0 11 C-1.32 10.34 -2.64 9.68 -4 9 C-2.35 8.34 -0.7 7.68 1 7 C0.67 4.69 0.34 2.38 0 0 Z " fill="#2C2B2B" transform="translate(69,174)"/>
<path d="M0 0 C0.66 0.66 1.32 1.32 2 2 C-0.31 4.64 -2.62 7.28 -5 10 C-6 8 -6 8 -5.3125 5.4375 C-4 3 -4 3 -1.875 2.1875 C-1.25625 2.125625 -0.6375 2.06375 0 2 C0 1.34 0 0.68 0 0 Z " fill="#249DD5" transform="translate(117,150)"/>
<path d="M0 0 C0.33 0.66 0.66 1.32 1 2 C1.66 2 2.32 2 3 2 C3 3.98 3 5.96 3 8 C2.01 8.495 2.01 8.495 1 9 C0.67 8.34 0.34 7.68 0 7 C-0.66 6.67 -1.32 6.34 -2 6 C-1.34 4.02 -0.68 2.04 0 0 Z " fill="#0D70B1" transform="translate(117,138)"/>
<path d="M0 0 C0 1.98 0 3.96 0 6 C-5.875 2.25 -5.875 2.25 -7 0 C-4.3333581 -1.33332095 -2.83319697 -0.67102033 0 0 Z " fill="#8D083D" transform="translate(122,132)"/>
<path d="M0 0 C0 3.3 0 6.6 0 10 C-0.99 10.495 -0.99 10.495 -2 11 C-2.33 7.7 -2.66 4.4 -3 1 C-1 0 -1 0 0 0 Z " fill="#2B85A9" transform="translate(102,109)"/>
<path d="M0 0 C0.33 0.66 0.66 1.32 1 2 C2.99883869 2.34022786 4.99890722 2.67329097 7 3 C7.66 3.66 8.32 4.32 9 5 C6.69 5.33 4.38 5.66 2 6 C2 5.34 2 4.68 2 4 C1.01 4 0.02 4 -1 4 C-0.67 2.68 -0.34 1.36 0 0 Z " fill="#560E75" transform="translate(113,81)"/>
<path d="M0 0 C0.33 0.99 0.66 1.98 1 3 C-1.97 3 -4.94 3 -8 3 C-8.33 2.34 -8.66 1.68 -9 1 C-3.375 -1.125 -3.375 -1.125 0 0 Z " fill="#E9F6F7" transform="translate(100,148)"/>
<path d="M0 0 C0.33 1.32 0.66 2.64 1 4 C1.66 4 2.32 4 3 4 C3.33 5.32 3.66 6.64 4 8 C3.01 8.66 2.02 9.32 1 10 C0.01 9.01 -0.98 8.02 -2 7 C-1.34 7 -0.68 7 0 7 C0 4.69 0 2.38 0 0 Z " fill="#941C51" transform="translate(107,117)"/>
<path d="M0 0 C2.76390737 2.40339772 3.04065919 3.16263678 4 7 C1.36 5.68 -1.28 4.36 -4 3 C-2.68 2.01 -1.36 1.02 0 0 Z " fill="#E16493" transform="translate(161,96)"/>
<path d="M0 0 C2.96404505 2.80804268 5.44499019 5.18315774 7 9 C5.02 8.34 3.04 7.68 1 7 C0.67 4.69 0.34 2.38 0 0 Z " fill="#E686B1" transform="translate(166,80)"/>
<path d="M0 0 C1.67542976 0.28604898 3.34385343 0.61781233 5 1 C5.33 1.99 5.66 2.98 6 4 C5.34 4 4.68 4 4 4 C3.67 4.66 3.34 5.32 3 6 C1.68 4.35 0.36 2.7 -1 1 C-0.67 0.67 -0.34 0.34 0 0 Z " fill="#F9F4F7" transform="translate(162,74)"/>
<path d="M0 0 C1.0625 1.875 1.0625 1.875 2 4 C1.67 4.66 1.34 5.32 1 6 C-0.32 5.67 -1.64 5.34 -3 5 C-3.33 3.68 -3.66 2.36 -4 1 C-2.68 0.67 -1.36 0.34 0 0 Z " fill="#EF9553" transform="translate(156,64)"/>
<path d="M0 0 C0.99 1.32 1.98 2.64 3 4 C-0.75 7 -0.75 7 -3 7 C-2.67 5.35 -2.34 3.7 -2 2 C-1.34 2 -0.68 2 0 2 C0 1.34 0 0.68 0 0 Z " fill="#F4F4F5" transform="translate(115,57)"/>
<path d="M0 0 C0.33 0.66 0.66 1.32 1 2 C1.99 2 2.98 2 4 2 C4 2.66 4 3.32 4 4 C2.02 4.99 2.02 4.99 0 6 C-0.33 5.34 -0.66 4.68 -1 4 C-3.02463255 3.34786708 -3.02463255 3.34786708 -5 3 C-2.25 0 -2.25 0 0 0 Z " fill="#942EBF" transform="translate(115,64)"/>
<path d="M0 0 C1.70884005 1.62339805 3.37446717 3.29319053 5 5 C5 5.66 5 6.32 5 7 C3.68 7.33 2.36 7.66 1 8 C1 6.35 1 4.7 1 3 C0.34 2.67 -0.32 2.34 -1 2 C-0.67 1.34 -0.34 0.68 0 0 Z " fill="#1B5094" transform="translate(115,133)"/>
<path d="M0 0 C0.99 0.33 1.98 0.66 3 1 C3 3.64 3 6.28 3 9 C2.34 9 1.68 9 1 9 C0.67 6.03 0.34 3.06 0 0 Z " fill="#035699" transform="translate(112,131)"/>
<path d="M0 0 C0.33 0 0.66 0 1 0 C1 2.64 1 5.28 1 8 C0.01 8 -0.98 8 -2 8 C-2.33 7.01 -2.66 6.02 -3 5 C-2.67 4.34 -2.34 3.68 -2 3 C-1.34 3 -0.68 3 0 3 C0 2.01 0 1.02 0 0 Z " fill="#7D2C7E" transform="translate(128,104)"/>
<path d="M0 0 C0.66 0 1.32 0 2 0 C2.33 1.32 2.66 2.64 3 4 C1.68 4 0.36 4 -1 4 C-1.33 4.99 -1.66 5.98 -2 7 C-2.66 5.68 -3.32 4.36 -4 3 C-3.01 3 -2.02 3 -1 3 C-0.67 2.01 -0.34 1.02 0 0 Z " fill="#7027AE" transform="translate(118,105)"/>
<path d="M0 0 C2.475 0.99 2.475 0.99 5 2 C5 2.66 5 3.32 5 4 C4.01 4 3.02 4 2 4 C1.67 4.99 1.34 5.98 1 7 C0.34 7 -0.32 7 -1 7 C-1.04254356 5.00045254 -1.04080783 2.99958364 -1 1 C-0.67 0.67 -0.34 0.34 0 0 Z " fill="#D35A8E" transform="translate(153,71)"/>
<path d="M0 0 C0 1.32 0 2.64 0 4 C-1.98 4 -3.96 4 -6 4 C-6 3.01 -6 2.02 -6 1 C-3.92446352 0.4465236 -2.15634036 0 0 0 Z " fill="#D3256A" transform="translate(131,66)"/>
<path d="M0 0 C1.32 0.33 2.64 0.66 4 1 C3.67 2.65 3.34 4.3 3 6 C1.35 6.33 -0.3 6.66 -2 7 C-2 6.01 -2 5.02 -2 4 C-0.68 4 0.64 4 2 4 C2 3.34 2 2.68 2 2 C1.34 2 0.68 2 0 2 C0 1.34 0 0.68 0 0 Z " fill="#E77D55" transform="translate(142,54)"/>
<path d="M0 0 C0 0.33 0 0.66 0 1 C-3.63 1.33 -7.26 1.66 -11 2 C-11 1.34 -11 0.68 -11 0 C-7.18243176 -1.37432457 -3.92744671 -0.67975039 0 0 Z " fill="#F7A64B" transform="translate(163,55)"/>
<path d="M0 0 C2.475 0.495 2.475 0.495 5 1 C5 1.99 5 2.98 5 4 C3.35 4 1.7 4 0 4 C0 2.68 0 1.36 0 0 Z " fill="#F0EEED" transform="translate(77,175)"/>
<path d="M0 0 C2.475 0.495 2.475 0.495 5 1 C5 1.66 5 2.32 5 3 C2.5 4.625 2.5 4.625 0 6 C0 4.02 0 2.04 0 0 Z " fill="#EFF7F7" transform="translate(96,138)"/>
<path d="M0 0 C2.97 0.33 5.94 0.66 9 1 C9 1.99 9 2.98 9 4 C6.03 3.01 3.06 2.02 0 1 C0 0.67 0 0.34 0 0 Z " fill="#A51949" transform="translate(87,116)"/>
<path d="M0 0 C0.66 0 1.32 0 2 0 C2 0.99 2 1.98 2 3 C2.66 3 3.32 3 4 3 C4.33 4.32 4.66 5.64 5 7 C1.83884224 5.63016497 1.0072908 5.0109362 -1 2 C-0.67 1.34 -0.34 0.68 0 0 Z " fill="#D42666" transform="translate(113,111)"/>
<path d="M0 0 C0.99 1.32 1.98 2.64 3 4 C2.34 4.66 1.68 5.32 1 6 C-1.125 5.625 -1.125 5.625 -3 5 C-2.67 4.01 -2.34 3.02 -2 2 C-1.34 2 -0.68 2 0 2 C0 1.34 0 0.68 0 0 Z " fill="#EDF0F5" transform="translate(70,98)"/>
<path d="M0 0 C0.99 0.33 1.98 0.66 3 1 C2.1875 2.9375 2.1875 2.9375 1 5 C0.01 5.33 -0.98 5.66 -2 6 C-2.99 5.34 -3.98 4.68 -5 4 C-3.68 4 -2.36 4 -1 4 C-0.67 2.68 -0.34 1.36 0 0 Z " fill="#DB457D" transform="translate(154,90)"/>
<path d="M0 0 C1.32 0.66 2.64 1.32 4 2 C1.03 4.475 1.03 4.475 -2 7 C-2.125 4.625 -2.125 4.625 -2 2 C-1.34 1.34 -0.68 0.68 0 0 Z " fill="#F7F0F6" transform="translate(107,65)"/>
<path d="M0 0 C4.29 0 8.58 0 13 0 C12.01 1.485 12.01 1.485 11 3 C10.34 3 9.68 3 9 3 C9 2.34 9 1.68 9 1 C4.545 1.495 4.545 1.495 0 2 C0 1.34 0 0.68 0 0 Z " fill="#DE486B" transform="translate(127,64)"/>
<path d="M0 0 C0 0.33 0 0.66 0 1 C-3.64793184 2.27253436 -7.1936543 3.32829194 -11 4 C-7.39482939 0.00856111 -5.29679003 -1.76559668 0 0 Z " fill="#CC1BE5" transform="translate(141,51)"/>
<path d="M0 0 C3.875 1.75 3.875 1.75 5 4 C4.38125 4.12375 3.7625 4.2475 3.125 4.375 C0.80879168 4.87197356 0.80879168 4.87197356 -1 7 C-1.33 6.01 -1.66 5.02 -2 4 C-1.34 4 -0.68 4 0 4 C0 2.68 0 1.36 0 0 Z " fill="#F1F0F0" transform="translate(77,181)"/>
<path d="M0 0 C0.33 0.66 0.66 1.32 1 2 C3.01669827 3.13350534 3.01669827 3.13350534 5 4 C4.67 4.66 4.34 5.32 4 6 C3.34 6 2.68 6 2 6 C1.67 5.34 1.34 4.68 1 4 C-1.02463255 3.34786708 -1.02463255 3.34786708 -3 3 C-2.01 2.01 -1.02 1.02 0 0 Z " fill="#D9E6ED" transform="translate(115,156)"/>
<path d="M0 0 C0.66 0.33 1.32 0.66 2 1 C1.34 2.32 0.68 3.64 0 5 C-0.66 5 -1.32 5 -2 5 C-2.99 5.66 -3.98 6.32 -5 7 C-3.75023244 3.34683329 -3.32901247 2.21934164 0 0 Z " fill="#086CB4" transform="translate(103,139)"/>
<path d="M0 0 C1.98 0.99 3.96 1.98 6 3 C5.34 4.32 4.68 5.64 4 7 C4 6.34 4 5.68 4 5 C3.34 5 2.68 5 2 5 C2 4.34 2 3.68 2 3 C1.34 3 0.68 3 0 3 C0 2.01 0 1.02 0 0 Z " fill="#EAE8EC" transform="translate(104,124)"/>
<path d="M0 0 C2.5654594 2.5654594 2.54046087 4.47686668 3 8 C2.34 8 1.68 8 1 8 C-0.42944945 5.64561267 -1.08661261 4.51967567 -0.625 1.75 C-0.41875 1.1725 -0.2125 0.595 0 0 Z " fill="#B965A6" transform="translate(144,99)"/>
<path d="M0 0 C0.33 1.32 0.66 2.64 1 4 C0.01 4 -0.98 4 -2 4 C-2 4.66 -2 5.32 -2 6 C-2.99 6 -3.98 6 -5 6 C-4.67 4.68 -4.34 3.36 -4 2 C-3.01 2 -2.02 2 -1 2 C-0.67 1.34 -0.34 0.68 0 0 Z " fill="#4D2EA0" transform="translate(116,98)"/>
<path d="M0 0 C2 0.6875 2 0.6875 4 2.6875 C0.71023192 3.78408936 -0.71303767 3.48703138 -4 2.6875 C-4 2.0275 -4 1.3675 -4 0.6875 C-2 -0.3125 -2 -0.3125 0 0 Z " fill="#1F3F94" transform="translate(84,100.3125)"/>
<path d="M0 0 C0.33 0.66 0.66 1.32 1 2 C0.67 2.66 0.34 3.32 0 4 C0.66 4.33 1.32 4.66 2 5 C1.34 5 0.68 5 0 5 C-0.33 5.66 -0.66 6.32 -1 7 C-2.32 6.67 -3.64 6.34 -5 6 C-3.35 4.02 -1.7 2.04 0 0 Z " fill="#623D96" transform="translate(93,85)"/>
<path d="M0 0 C1.43655854 -0.08131463 2.8744483 -0.13933559 4.3125 -0.1875 C5.51326172 -0.23970703 5.51326172 -0.23970703 6.73828125 -0.29296875 C9.47851584 0.06198392 10.29171079 0.89366282 12 3 C10.68 3.33 9.36 3.66 8 4 C8 3.01 8 2.02 8 1 C5.36 1 2.72 1 0 1 C0 0.67 0 0.34 0 0 Z " fill="#F69C56" transform="translate(72,75)"/>
<path d="M0 0 C0.33 0 0.66 0 1 0 C0.67 2.97 0.34 5.94 0 9 C-0.99 9 -1.98 9 -3 9 C-2.67 7.68 -2.34 6.36 -2 5 C-1.67 5 -1.34 5 -1 5 C-0.67 3.35 -0.34 1.7 0 0 Z " fill="#C61963" transform="translate(125,139)"/>
<path d="M0 0 C4.95 0.99 4.95 0.99 10 2 C8.68 2.33 7.36 2.66 6 3 C5.67 3.66 5.34 4.32 5 5 C3.35 3.35 1.7 1.7 0 0 Z " fill="#F6DBEA" transform="translate(148,81)"/>
<path d="M0 0 C0.66 0 1.32 0 2 0 C2.625 2.875 2.625 2.875 3 6 C2.34 6.66 1.68 7.32 1 8 C-0.35439668 5.29120665 -0.06501451 2.99066732 0 0 Z " fill="#3D2489" transform="translate(109,80)"/>
<path d="M0 0 C3.53600465 1.91135386 5.78972846 3.62642766 8 7 C7.401875 6.690625 6.80375 6.38125 6.1875 6.0625 C3.91043228 4.89790296 3.91043228 4.89790296 1 4 C0.3125 1.9375 0.3125 1.9375 0 0 Z " fill="#D871A0" transform="translate(158,74)"/>
<path d="M0 0 C0 0.33 0 0.66 0 1 C-2.64 1 -5.28 1 -8 1 C-8 0.34 -8 -0.32 -8 -1 C-4.59745511 -2.2151946 -3.06748874 -1.86240388 0 0 Z " fill="#F6C35F" transform="translate(168,71)"/>
</svg>
